<?xml version="1.0" encoding="utf-8" standalone="no"?>
<!DOCTYPE svg PUBLIC "-//W3C//DTD SVG 1.1//EN"
  "http://www.w3.org/Graphics/SVG/1.1/DTD/svg11.dtd">
<svg xmlns:xlink="http://www.w3.org/1999/xlink" width="508.60875pt" height="197.881969pt" viewBox="0 0 508.60875 197.881969" xmlns="http://www.w3.org/2000/svg" version="1.1">
 <metadata>
  <rdf:RDF xmlns:dc="http://purl.org/dc/elements/1.1/" xmlns:cc="http://creativecommons.org/ns#" xmlns:rdf="http://www.w3.org/1999/02/22-rdf-syntax-ns#">
   <cc:Work>
    <dc:type rdf:resource="http://purl.org/dc/dcmitype/StillImage"/>
    <dc:date>2026-06-24T00:36:56.251609</dc:date>
    <dc:format>image/svg+xml</dc:format>
    <dc:creator>
     <cc:Agent>
      <dc:title>Matplotlib v3.10.9, https://matplotlib.org/</dc:title>
     </cc:Agent>
    </dc:creator>
   </cc:Work>
  </rdf:RDF>
 </metadata>
 <defs>
  <style type="text/css">*{stroke-linejoin: round; stroke-linecap: butt}</style>
 </defs>
 <g id="figure_1">
  <g id="patch_1">
   <path d="M 0 197.881969 
L 508.60875 197.881969 
L 508.60875 0 
L 0 0 
z
" style="fill: #ffffff"/>
  </g>
  <g id="axes_1">
   <g id="patch_2">
    <path d="M 59.04 166.464 
L 230.411901 166.464 
L 230.411901 27.36 
L 59.04 27.36 
z
" style="fill: #ffffff"/>
   </g>
   <g id="FillBetweenPolyCollection_1">
    <defs>
     <path id="m0095b6e272" d="M 66.829632 -164.19906 
L 66.829632 -160.46953 
L 67.141842 -155.985039 
L 67.454051 -154.802005 
L 67.766261 -153.742666 
L 68.078471 -151.951045 
L 68.39068 -150.406281 
L 68.70289 -149.201249 
L 69.0151 -148.03921 
L 69.327309 -147.034213 
L 69.639519 -146.221581 
L 69.951729 -145.471858 
L 70.263938 -145.011217 
L 70.576148 -144.412023 
L 70.888358 -143.746394 
L 71.200568 -143.170469 
L 71.512777 -142.86112 
L 71.824987 -142.269877 
L 72.137197 -141.748817 
L 72.449406 -141.547023 
L 72.761616 -141.350811 
L 73.073826 -140.507821 
L 73.386035 -140.420415 
L 73.698245 -139.820699 
L 74.010455 -138.822215 
L 74.322665 -138.050507 
L 74.634874 -137.351202 
L 74.947084 -136.543637 
L 75.259294 -136.15156 
L 75.571503 -135.430113 
L 75.883713 -135.052606 
L 76.195923 -134.179564 
L 76.508132 -133.774463 
L 76.820342 -133.018817 
L 77.132552 -132.364943 
L 77.444761 -131.528326 
L 77.756971 -131.172343 
L 78.069181 -130.556029 
L 78.381391 -130.145486 
L 78.6936 -130.619422 
L 79.00581 -128.770627 
L 79.31802 -127.39192 
L 79.630229 -127.248255 
L 79.942439 -128.107414 
L 80.254649 -126.929376 
L 80.566858 -125.801375 
L 80.879068 -125.358963 
L 81.191278 -124.623161 
L 81.503487 -123.934393 
L 81.815697 -123.880964 
L 82.127907 -122.360973 
L 82.440117 -121.858759 
L 82.752326 -120.860478 
L 83.064536 -120.90813 
L 83.376746 -119.8755 
L 83.688955 -119.928441 
L 84.001165 -118.724332 
L 84.313375 -118.494658 
L 84.625584 -117.290544 
L 84.937794 -116.569464 
L 85.250004 -115.959309 
L 85.562213 -115.982438 
L 85.874423 -114.641114 
L 86.186633 -114.623688 
L 86.498843 -114.660674 
L 86.811052 -113.581454 
L 87.123262 -113.344735 
L 87.435472 -113.005827 
L 87.747681 -111.87844 
L 88.059891 -112.935092 
L 88.372101 -111.14991 
L 88.68431 -110.197902 
L 88.99652 -110.896384 
L 89.30873 -109.314826 
L 89.620939 -108.535593 
L 89.933149 -108.769068 
L 90.245359 -108.020866 
L 90.557569 -106.98674 
L 90.869778 -106.748288 
L 91.181988 -106.577427 
L 91.494198 -107.017851 
L 91.806407 -106.2011 
L 92.118617 -105.566466 
L 92.430827 -104.57718 
L 92.743036 -103.460137 
L 93.055246 -103.074564 
L 93.367456 -103.349064 
L 93.679666 -101.951025 
L 93.991875 -101.579855 
L 94.304085 -101.357766 
L 94.616295 -100.494098 
L 94.928504 -101.497938 
L 95.240714 -100.584913 
L 95.552924 -100.595354 
L 95.865133 -100.835352 
L 96.177343 -99.875681 
L 96.489553 -99.667588 
L 96.801762 -99.32045 
L 97.113972 -97.992803 
L 97.426182 -97.615248 
L 97.738392 -96.919815 
L 98.050601 -96.295404 
L 98.362811 -96.01456 
L 98.675021 -95.714254 
L 98.98723 -94.935312 
L 99.29944 -94.048336 
L 99.61165 -94.56462 
L 99.923859 -93.592427 
L 100.236069 -92.72564 
L 100.548279 -91.883691 
L 100.860488 -91.257191 
L 101.172698 -91.672247 
L 101.484908 -90.77918 
L 101.797118 -89.92141 
L 102.109327 -88.682909 
L 102.421537 -89.198312 
L 102.733747 -87.791035 
L 103.045956 -87.702298 
L 103.358166 -87.135877 
L 103.670376 -86.771747 
L 103.982585 -86.386036 
L 104.294795 -86.348017 
L 104.607005 -85.035712 
L 104.919214 -85.567104 
L 105.231424 -86.026175 
L 105.543634 -85.669749 
L 105.855844 -84.828326 
L 106.168053 -83.839528 
L 106.480263 -83.585005 
L 106.792473 -82.277781 
L 107.104682 -83.24781 
L 107.416892 -82.767076 
L 107.729102 -82.021647 
L 108.041311 -81.05343 
L 108.353521 -81.598738 
L 108.665731 -81.964049 
L 108.97794 -81.442735 
L 109.29015 -80.82934 
L 109.60236 -79.823387 
L 109.91457 -78.373997 
L 110.226779 -78.694664 
L 110.538989 -79.444392 
L 110.851199 -78.290487 
L 111.163408 -77.607959 
L 111.475618 -78.188444 
L 111.787828 -78.690442 
L 112.100037 -77.515869 
L 112.412247 -76.114984 
L 112.724457 -78.497155 
L 113.036667 -77.226566 
L 113.348876 -76.640063 
L 113.661086 -76.053893 
L 113.973296 -75.276068 
L 114.285505 -76.244078 
L 114.597715 -75.198233 
L 114.909925 -74.876028 
L 115.222134 -74.405249 
L 115.534344 -74.355273 
L 115.846554 -74.832123 
L 116.158763 -74.085636 
L 116.470973 -73.354601 
L 116.783183 -74.622887 
L 117.095393 -74.261805 
L 117.407602 -72.829103 
L 117.719812 -73.04382 
L 118.032022 -72.811092 
L 118.344231 -72.130195 
L 118.656441 -73.265905 
L 118.968651 -73.029218 
L 119.28086 -72.764103 
L 119.59307 -72.211674 
L 119.90528 -71.499896 
L 120.217489 -71.471701 
L 120.529699 -71.217715 
L 120.841909 -71.148497 
L 121.154119 -69.848344 
L 121.466328 -70.252285 
L 121.778538 -72.15341 
L 122.090748 -71.643767 
L 122.402957 -70.869165 
L 122.715167 -70.520212 
L 123.027377 -69.873848 
L 123.339586 -69.13547 
L 123.651796 -69.650394 
L 123.964006 -69.27554 
L 124.276215 -69.99503 
L 124.588425 -69.589289 
L 124.900635 -69.703065 
L 125.212845 -68.605758 
L 125.525054 -68.919614 
L 125.837264 -68.695383 
L 126.149474 -68.194881 
L 126.461683 -67.401067 
L 126.773893 -66.700815 
L 127.086103 -67.465759 
L 127.398312 -66.067509 
L 127.710522 -66.243074 
L 128.022732 -66.833483 
L 128.334941 -67.292712 
L 128.647151 -67.655957 
L 128.959361 -66.290465 
L 129.271571 -66.433862 
L 129.58378 -68.271432 
L 129.89599 -66.94089 
L 130.2082 -68.484323 
L 130.520409 -68.142956 
L 130.832619 -67.688792 
L 131.144829 -66.776926 
L 131.457038 -66.411495 
L 131.769248 -66.278144 
L 132.081458 -66.216534 
L 132.393668 -66.394728 
L 132.705877 -66.095008 
L 133.018087 -65.546183 
L 133.330297 -64.639283 
L 133.642506 -64.504599 
L 133.954716 -65.409596 
L 134.266926 -65.918376 
L 134.579135 -64.843724 
L 134.891345 -64.67565 
L 135.203555 -63.640922 
L 135.515764 -63.355002 
L 135.827974 -62.793696 
L 136.140184 -62.900565 
L 136.452394 -62.253616 
L 136.764603 -62.562127 
L 137.076813 -61.863205 
L 137.389023 -61.178645 
L 137.701232 -60.674916 
L 138.013442 -60.894668 
L 138.325652 -61.984293 
L 138.637861 -61.677995 
L 138.950071 -61.081877 
L 139.262281 -60.371501 
L 139.57449 -60.513065 
L 139.8867 -59.912701 
L 140.19891 -59.105834 
L 140.51112 -58.630721 
L 140.823329 -58.404141 
L 141.135539 -58.235697 
L 141.447749 -60.287926 
L 141.759958 -60.328853 
L 142.072168 -59.764158 
L 142.384378 -60.278963 
L 142.696587 -59.48879 
L 143.008797 -58.855173 
L 143.321007 -58.899848 
L 143.633216 -58.490161 
L 143.945426 -58.583157 
L 144.257636 -58.713536 
L 144.569846 -58.570968 
L 144.882055 -58.442279 
L 145.194265 -59.364572 
L 145.506475 -60.064119 
L 145.818684 -57.19337 
L 146.130894 -57.098629 
L 146.443104 -55.774654 
L 146.755313 -56.798132 
L 147.067523 -56.477386 
L 147.379733 -56.682488 
L 147.691943 -56.256643 
L 148.004152 -55.853221 
L 148.316362 -55.613227 
L 148.628572 -54.932957 
L 148.940781 -52.690816 
L 149.252991 -53.267183 
L 149.565201 -54.489752 
L 149.87741 -56.701499 
L 150.18962 -56.038811 
L 150.50183 -57.026632 
L 150.814039 -56.815014 
L 151.126249 -54.89993 
L 151.438459 -53.03142 
L 151.750669 -50.66991 
L 152.062878 -49.410696 
L 152.375088 -49.880701 
L 152.687298 -49.061969 
L 152.999507 -48.323181 
L 153.311717 -48.097956 
L 153.623927 -47.335891 
L 153.936136 -47.470925 
L 154.248346 -47.805277 
L 154.560556 -48.042734 
L 154.872765 -46.969451 
L 155.184975 -46.7755 
L 155.497185 -49.439112 
L 155.809395 -48.035544 
L 156.121604 -46.483525 
L 156.433814 -45.439588 
L 156.746024 -45.535004 
L 157.058233 -44.960363 
L 157.370443 -45.65206 
L 157.682653 -44.497505 
L 157.994862 -44.451569 
L 158.307072 -44.406584 
L 158.619282 -44.090614 
L 158.931491 -44.626051 
L 159.243701 -44.307275 
L 159.555911 -43.635751 
L 159.868121 -44.153442 
L 160.18033 -43.658469 
L 160.49254 -44.034204 
L 160.80475 -44.616828 
L 161.116959 -45.48593 
L 161.429169 -44.141196 
L 161.741379 -44.596471 
L 162.053588 -44.44143 
L 162.365798 -45.059438 
L 162.678008 -45.061061 
L 162.990217 -44.868018 
L 163.302427 -44.860957 
L 163.614637 -44.579654 
L 163.926847 -43.436916 
L 164.239056 -44.339155 
L 164.551266 -44.452127 
L 164.863476 -43.720099 
L 165.175685 -44.72162 
L 165.487895 -43.752998 
L 165.800105 -44.175578 
L 166.112314 -43.311285 
L 166.424524 -45.007957 
L 166.736734 -44.989004 
L 167.048944 -45.343645 
L 167.361153 -44.440802 
L 167.673363 -44.671815 
L 167.985573 -44.45424 
L 168.297782 -45.416375 
L 168.609992 -45.718325 
L 168.922202 -44.322298 
L 169.234411 -44.740542 
L 169.546621 -45.020652 
L 169.858831 -44.00798 
L 170.17104 -45.61532 
L 170.48325 -47.289844 
L 170.79546 -46.997491 
L 171.10767 -44.922266 
L 171.419879 -44.751704 
L 171.732089 -45.468094 
L 172.044299 -44.395341 
L 172.356508 -44.605255 
L 172.668718 -44.573622 
L 172.980928 -44.558789 
L 173.293137 -43.670051 
L 173.605347 -43.463141 
L 173.917557 -44.888638 
L 174.229766 -46.225044 
L 174.541976 -44.458578 
L 174.854186 -42.325559 
L 175.166396 -43.109786 
L 175.478605 -44.382759 
L 175.790815 -43.703079 
L 176.103025 -43.476209 
L 176.415234 -42.478905 
L 176.727444 -41.108008 
L 177.039654 -41.442987 
L 177.351863 -42.382438 
L 177.664073 -40.945185 
L 177.976283 -42.152775 
L 178.288492 -42.043744 
L 178.600702 -41.325863 
L 178.912912 -40.771827 
L 179.225122 -40.530074 
L 179.537331 -42.123723 
L 179.849541 -41.243645 
L 180.161751 -41.367845 
L 180.47396 -40.45661 
L 180.78617 -40.613262 
L 181.09838 -41.004889 
L 181.410589 -41.211501 
L 181.722799 -41.424202 
L 182.035009 -41.378724 
L 182.347218 -40.354259 
L 182.659428 -40.476569 
L 182.971638 -39.826745 
L 183.283848 -40.082852 
L 183.596057 -40.061708 
L 183.908267 -39.180261 
L 184.220477 -40.02797 
L 184.532686 -38.379812 
L 184.844896 -38.762078 
L 185.157106 -39.456628 
L 185.469315 -39.074474 
L 185.781525 -41.063947 
L 186.093735 -41.924358 
L 186.405945 -39.121847 
L 186.718154 -38.867531 
L 187.030364 -39.152682 
L 187.342574 -38.86759 
L 187.654783 -37.893043 
L 187.966993 -39.112768 
L 188.279203 -37.740878 
L 188.591412 -38.745984 
L 188.903622 -41.906604 
L 189.215832 -39.463105 
L 189.528041 -39.596422 
L 189.840251 -40.256428 
L 190.152461 -41.885664 
L 190.464671 -39.727386 
L 190.77688 -40.534063 
L 191.08909 -39.379903 
L 191.4013 -40.908367 
L 191.713509 -39.827151 
L 192.025719 -39.472832 
L 192.337929 -38.882428 
L 192.650138 -39.838849 
L 192.962348 -41.021173 
L 193.274558 -40.083165 
L 193.586767 -41.565763 
L 193.898977 -39.756159 
L 194.211187 -40.355453 
L 194.523397 -40.843734 
L 194.835606 -39.928895 
L 195.147816 -41.205872 
L 195.460026 -41.010343 
L 195.772235 -40.682445 
L 196.084445 -40.518196 
L 196.396655 -39.948474 
L 196.708864 -40.211527 
L 197.021074 -40.607987 
L 197.333284 -41.108449 
L 197.645493 -40.61309 
L 197.957703 -39.650657 
L 198.269913 -40.452667 
L 198.582123 -40.288293 
L 198.894332 -40.204797 
L 199.206542 -40.2606 
L 199.518752 -40.325584 
L 199.830961 -39.757262 
L 200.143171 -41.61754 
L 200.455381 -41.315709 
L 200.76759 -41.385949 
L 201.0798 -42.502851 
L 201.39201 -42.889162 
L 201.704219 -41.850824 
L 202.016429 -42.160387 
L 202.328639 -41.46532 
L 202.640849 -40.612328 
L 202.953058 -40.962667 
L 203.265268 -40.582533 
L 203.577478 -40.94841 
L 203.889687 -41.498477 
L 204.201897 -42.10385 
L 204.514107 -40.552593 
L 204.826316 -40.984637 
L 205.138526 -40.955781 
L 205.450736 -42.484308 
L 205.762946 -40.386069 
L 206.075155 -41.466689 
L 206.387365 -41.974206 
L 206.699575 -40.452667 
L 207.011784 -42.067056 
L 207.323994 -40.557147 
L 207.636204 -40.847826 
L 207.948413 -42.586709 
L 208.260623 -41.735977 
L 208.572833 -40.924814 
L 208.885042 -41.265512 
L 209.197252 -40.205143 
L 209.509462 -41.30044 
L 209.821672 -42.206803 
L 210.133881 -40.297842 
L 210.446091 -41.105453 
L 210.758301 -42.503258 
L 211.07051 -42.435113 
L 211.38272 -41.260892 
L 211.69493 -41.037526 
L 212.007139 -40.882604 
L 212.319349 -42.714585 
L 212.631559 -42.550654 
L 212.943768 -42.390986 
L 213.255978 -41.233524 
L 213.568188 -40.719009 
L 213.880398 -40.853841 
L 214.192607 -41.286828 
L 214.504817 -41.795202 
L 214.817027 -43.788234 
L 215.129236 -42.779116 
L 215.441446 -42.81413 
L 215.753656 -43.088169 
L 216.065865 -42.863693 
L 216.378075 -41.618991 
L 216.690285 -40.7835 
L 217.002494 -41.482034 
L 217.314704 -42.270163 
L 217.626914 -41.223561 
L 217.939124 -40.563086 
L 218.251333 -41.424492 
L 218.563543 -42.00252 
L 218.875753 -41.732865 
L 219.187962 -41.984203 
L 219.500172 -42.620528 
L 219.812382 -42.198666 
L 220.124591 -41.827077 
L 220.436801 -40.883278 
L 220.749011 -41.677098 
L 221.061221 -42.777816 
L 221.37343 -43.150231 
L 221.68564 -43.928647 
L 221.99785 -43.049828 
L 222.310059 -42.865062 
L 222.622269 -42.702735 
L 222.622269 -160.333882 
L 222.622269 -160.333882 
L 222.310059 -160.664006 
L 221.99785 -159.616086 
L 221.68564 -159.916153 
L 221.37343 -160.510943 
L 221.061221 -160.355789 
L 220.749011 -160.24945 
L 220.436801 -160.303011 
L 220.124591 -160.672766 
L 219.812382 -160.429781 
L 219.500172 -160.791569 
L 219.187962 -160.658329 
L 218.875753 -160.146766 
L 218.563543 -160.717759 
L 218.251333 -160.521336 
L 217.939124 -160.070837 
L 217.626914 -160.901592 
L 217.314704 -160.20103 
L 217.002494 -160.751945 
L 216.690285 -160.670886 
L 216.378075 -159.830899 
L 216.065865 -160.530582 
L 215.753656 -160.501593 
L 215.441446 -159.905445 
L 215.129236 -160.473162 
L 214.817027 -160.520448 
L 214.504817 -160.421853 
L 214.192607 -160.468967 
L 213.880398 -159.649058 
L 213.568188 -159.944197 
L 213.255978 -160.538417 
L 212.943768 -160.381266 
L 212.631559 -160.702517 
L 212.319349 -160.615585 
L 212.007139 -160.420095 
L 211.69493 -160.294715 
L 211.38272 -160.273339 
L 211.07051 -160.871415 
L 210.758301 -159.778185 
L 210.446091 -160.144042 
L 210.133881 -160.256671 
L 209.821672 -159.703393 
L 209.509462 -160.221765 
L 209.197252 -160.459239 
L 208.885042 -161.141418 
L 208.572833 -160.374621 
L 208.260623 -160.500289 
L 207.948413 -160.905212 
L 207.636204 -159.433903 
L 207.323994 -160.241399 
L 207.011784 -160.913971 
L 206.699575 -160.009493 
L 206.387365 -161.054766 
L 206.075155 -161.183363 
L 205.762946 -160.286365 
L 205.450736 -160.607367 
L 205.138526 -160.191164 
L 204.826316 -160.422133 
L 204.514107 -159.272644 
L 204.201897 -160.715112 
L 203.889687 -160.602926 
L 203.577478 -160.751001 
L 203.265268 -159.929512 
L 202.953058 -160.03543 
L 202.640849 -160.67121 
L 202.328639 -160.5309 
L 202.016429 -161.392348 
L 201.704219 -160.456675 
L 201.39201 -161.293241 
L 201.0798 -160.302377 
L 200.76759 -160.306615 
L 200.455381 -160.327613 
L 200.143171 -161.106372 
L 199.830961 -160.502355 
L 199.518752 -160.680964 
L 199.206542 -160.530901 
L 198.894332 -159.973591 
L 198.582123 -160.570277 
L 198.269913 -160.988935 
L 197.957703 -160.462412 
L 197.645493 -160.542067 
L 197.333284 -160.688185 
L 197.021074 -160.019078 
L 196.708864 -160.240155 
L 196.396655 -160.002249 
L 196.084445 -160.547552 
L 195.772235 -160.695119 
L 195.460026 -160.551713 
L 195.147816 -160.311661 
L 194.835606 -160.428621 
L 194.523397 -160.312669 
L 194.211187 -161.027939 
L 193.898977 -159.7996 
L 193.586767 -160.808213 
L 193.274558 -159.937083 
L 192.962348 -160.022969 
L 192.650138 -160.156172 
L 192.337929 -160.415919 
L 192.025719 -160.813767 
L 191.713509 -160.17367 
L 191.4013 -160.675078 
L 191.08909 -160.452989 
L 190.77688 -160.276564 
L 190.464671 -160.49613 
L 190.152461 -160.7359 
L 189.840251 -160.243858 
L 189.528041 -159.595949 
L 189.215832 -160.178321 
L 188.903622 -160.393251 
L 188.591412 -160.321428 
L 188.279203 -160.469519 
L 187.966993 -160.80913 
L 187.654783 -160.364733 
L 187.342574 -160.437897 
L 187.030364 -159.925777 
L 186.718154 -159.893254 
L 186.405945 -160.302012 
L 186.093735 -161.049556 
L 185.781525 -160.287761 
L 185.469315 -160.689539 
L 185.157106 -160.393653 
L 184.844896 -160.302477 
L 184.532686 -160.168059 
L 184.220477 -160.56198 
L 183.908267 -160.627928 
L 183.596057 -160.617677 
L 183.283848 -160.957366 
L 182.971638 -160.937486 
L 182.659428 -160.810889 
L 182.347218 -160.661007 
L 182.035009 -161.129574 
L 181.722799 -160.996077 
L 181.410589 -161.247274 
L 181.09838 -161.140354 
L 180.78617 -160.680081 
L 180.47396 -160.871659 
L 180.161751 -161.047548 
L 179.849541 -160.941377 
L 179.537331 -161.139363 
L 179.225122 -160.851515 
L 178.912912 -160.256909 
L 178.600702 -160.646816 
L 178.288492 -161.072987 
L 177.976283 -161.183612 
L 177.664073 -160.726036 
L 177.351863 -160.771748 
L 177.039654 -160.504429 
L 176.727444 -160.332098 
L 176.415234 -160.901489 
L 176.103025 -161.18525 
L 175.790815 -161.055427 
L 175.478605 -160.851492 
L 175.166396 -160.969594 
L 174.854186 -160.391663 
L 174.541976 -161.734316 
L 174.229766 -161.306538 
L 173.917557 -160.641421 
L 173.605347 -160.732897 
L 173.293137 -160.806486 
L 172.980928 -161.078321 
L 172.668718 -161.048367 
L 172.356508 -161.068626 
L 172.044299 -160.727219 
L 171.732089 -161.441393 
L 171.419879 -161.148758 
L 171.10767 -161.09394 
L 170.79546 -161.488313 
L 170.48325 -160.868403 
L 170.17104 -160.695294 
L 169.858831 -160.691471 
L 169.546621 -161.328671 
L 169.234411 -160.576892 
L 168.922202 -161.163121 
L 168.609992 -161.290619 
L 168.297782 -160.723408 
L 167.985573 -160.303661 
L 167.673363 -160.744295 
L 167.361153 -160.792287 
L 167.048944 -160.739827 
L 166.736734 -160.512905 
L 166.424524 -160.170039 
L 166.112314 -160.699191 
L 165.800105 -160.888948 
L 165.487895 -160.130621 
L 165.175685 -161.08223 
L 164.863476 -160.292556 
L 164.551266 -160.777618 
L 164.239056 -161.075364 
L 163.926847 -159.93772 
L 163.614637 -160.850863 
L 163.302427 -160.751969 
L 162.990217 -160.948034 
L 162.678008 -160.674034 
L 162.365798 -160.473267 
L 162.053588 -160.889256 
L 161.741379 -160.97832 
L 161.429169 -160.33658 
L 161.116959 -160.567738 
L 160.80475 -161.005191 
L 160.49254 -161.003402 
L 160.18033 -160.28318 
L 159.868121 -160.981928 
L 159.555911 -161.017886 
L 159.243701 -160.976565 
L 158.931491 -160.436331 
L 158.619282 -160.856344 
L 158.307072 -161.033746 
L 157.994862 -160.467054 
L 157.682653 -160.673949 
L 157.370443 -160.846579 
L 157.058233 -160.725828 
L 156.746024 -161.057333 
L 156.433814 -161.117048 
L 156.121604 -161.885605 
L 155.809395 -161.176842 
L 155.497185 -161.104413 
L 155.184975 -161.341958 
L 154.872765 -161.592562 
L 154.560556 -161.420466 
L 154.248346 -161.180378 
L 153.936136 -160.940488 
L 153.623927 -161.241958 
L 153.311717 -161.46724 
L 152.999507 -161.168163 
L 152.687298 -161.471382 
L 152.375088 -161.304344 
L 152.062878 -161.634538 
L 151.750669 -161.382591 
L 151.438459 -161.477162 
L 151.126249 -161.947038 
L 150.814039 -161.243662 
L 150.50183 -161.641954 
L 150.18962 -161.674055 
L 149.87741 -161.353791 
L 149.565201 -161.537801 
L 149.252991 -161.680813 
L 148.940781 -160.967272 
L 148.628572 -161.450504 
L 148.316362 -161.817575 
L 148.004152 -161.79044 
L 147.691943 -161.874118 
L 147.379733 -161.548695 
L 147.067523 -161.846123 
L 146.755313 -161.852168 
L 146.443104 -161.598709 
L 146.130894 -162.210921 
L 145.818684 -161.553146 
L 145.506475 -162.554768 
L 145.194265 -161.824359 
L 144.882055 -161.9278 
L 144.569846 -161.94505 
L 144.257636 -161.895883 
L 143.945426 -161.930497 
L 143.633216 -161.618523 
L 143.321007 -161.970226 
L 143.008797 -162.375643 
L 142.696587 -162.152698 
L 142.384378 -162.443197 
L 142.072168 -162.285535 
L 141.759958 -162.398871 
L 141.447749 -161.850174 
L 141.135539 -162.049223 
L 140.823329 -162.276103 
L 140.51112 -161.964872 
L 140.19891 -162.197677 
L 139.8867 -162.202281 
L 139.57449 -162.154643 
L 139.262281 -162.355753 
L 138.950071 -162.49046 
L 138.637861 -162.064681 
L 138.325652 -162.470861 
L 138.013442 -162.034483 
L 137.701232 -162.183512 
L 137.389023 -162.339742 
L 137.076813 -162.332595 
L 136.764603 -162.489811 
L 136.452394 -162.241123 
L 136.140184 -162.226401 
L 135.827974 -162.46986 
L 135.515764 -162.356212 
L 135.203555 -162.168714 
L 134.891345 -162.583031 
L 134.579135 -162.37273 
L 134.266926 -162.290023 
L 133.954716 -162.237786 
L 133.642506 -162.212347 
L 133.330297 -162.449731 
L 133.018087 -162.649356 
L 132.705877 -162.385775 
L 132.393668 -162.321853 
L 132.081458 -162.26715 
L 131.769248 -162.082333 
L 131.457038 -162.02024 
L 131.144829 -162.406724 
L 130.832619 -162.129989 
L 130.520409 -162.214966 
L 130.2082 -161.78239 
L 129.89599 -161.702668 
L 129.58378 -161.843376 
L 129.271571 -161.266877 
L 128.959361 -161.586924 
L 128.647151 -161.454582 
L 128.334941 -161.621662 
L 128.022732 -161.431773 
L 127.710522 -161.449656 
L 127.398312 -161.354543 
L 127.086103 -162.059794 
L 126.773893 -161.242611 
L 126.461683 -161.34383 
L 126.149474 -161.589381 
L 125.837264 -161.823583 
L 125.525054 -161.644664 
L 125.212845 -161.572326 
L 124.900635 -161.875923 
L 124.588425 -161.887021 
L 124.276215 -161.891217 
L 123.964006 -161.526277 
L 123.651796 -161.818733 
L 123.339586 -161.626145 
L 123.027377 -161.747296 
L 122.715167 -161.419797 
L 122.402957 -161.644216 
L 122.090748 -161.613087 
L 121.778538 -161.325901 
L 121.466328 -161.587299 
L 121.154119 -161.139763 
L 120.841909 -161.707738 
L 120.529699 -161.244249 
L 120.217489 -161.453255 
L 119.90528 -161.319279 
L 119.59307 -161.756111 
L 119.28086 -161.475343 
L 118.968651 -161.59045 
L 118.656441 -161.538484 
L 118.344231 -161.054174 
L 118.032022 -161.55275 
L 117.719812 -161.476083 
L 117.407602 -161.286432 
L 117.095393 -161.746391 
L 116.783183 -161.390886 
L 116.470973 -161.197846 
L 116.158763 -161.440325 
L 115.846554 -161.499933 
L 115.534344 -161.189578 
L 115.222134 -161.42191 
L 114.909925 -161.520967 
L 114.597715 -161.308228 
L 114.285505 -161.662491 
L 113.973296 -161.400412 
L 113.661086 -161.421296 
L 113.348876 -161.199657 
L 113.036667 -161.245344 
L 112.724457 -161.381174 
L 112.412247 -160.87106 
L 112.100037 -161.311994 
L 111.787828 -161.277816 
L 111.475618 -161.137626 
L 111.163408 -161.298737 
L 110.851199 -161.339951 
L 110.538989 -161.273115 
L 110.226779 -161.245918 
L 109.91457 -161.223444 
L 109.60236 -161.364282 
L 109.29015 -161.391963 
L 108.97794 -161.297554 
L 108.665731 -161.432385 
L 108.353521 -161.273094 
L 108.041311 -161.098663 
L 107.729102 -161.159647 
L 107.416892 -161.305871 
L 107.104682 -161.279229 
L 106.792473 -161.119717 
L 106.480263 -161.324816 
L 106.168053 -161.138061 
L 105.855844 -161.306586 
L 105.543634 -161.152517 
L 105.231424 -161.151338 
L 104.919214 -160.857568 
L 104.607005 -160.853491 
L 104.294795 -161.198062 
L 103.982585 -160.657277 
L 103.670376 -160.865691 
L 103.358166 -160.996782 
L 103.045956 -161.05455 
L 102.733747 -160.632238 
L 102.421537 -160.990723 
L 102.109327 -161.007494 
L 101.797118 -161.06513 
L 101.484908 -161.100944 
L 101.172698 -161.055262 
L 100.860488 -161.212819 
L 100.548279 -161.042434 
L 100.236069 -161.142256 
L 99.923859 -161.241848 
L 99.61165 -161.052455 
L 99.29944 -161.098846 
L 98.98723 -161.292564 
L 98.675021 -161.036285 
L 98.362811 -161.081933 
L 98.050601 -161.187505 
L 97.738392 -161.372768 
L 97.426182 -161.117904 
L 97.113972 -161.214437 
L 96.801762 -161.152361 
L 96.489553 -161.165222 
L 96.177343 -161.329758 
L 95.865133 -161.061506 
L 95.552924 -160.825157 
L 95.240714 -160.742988 
L 94.928504 -160.752183 
L 94.616295 -160.783502 
L 94.304085 -160.667139 
L 93.991875 -160.78055 
L 93.679666 -160.814831 
L 93.367456 -160.904389 
L 93.055246 -160.970616 
L 92.743036 -160.844929 
L 92.430827 -160.992504 
L 92.118617 -161.080572 
L 91.806407 -161.074474 
L 91.494198 -160.885133 
L 91.181988 -160.8653 
L 90.869778 -160.852976 
L 90.557569 -160.906624 
L 90.245359 -160.842212 
L 89.933149 -160.906274 
L 89.620939 -160.747524 
L 89.30873 -160.971738 
L 88.99652 -161.083513 
L 88.68431 -160.911522 
L 88.372101 -161.069076 
L 88.059891 -160.912778 
L 87.747681 -160.622528 
L 87.435472 -160.889346 
L 87.123262 -160.961517 
L 86.811052 -160.940408 
L 86.498843 -160.959038 
L 86.186633 -160.951445 
L 85.874423 -160.966943 
L 85.562213 -160.901185 
L 85.250004 -160.998569 
L 84.937794 -161.054411 
L 84.625584 -161.200138 
L 84.313375 -161.346053 
L 84.001165 -161.294077 
L 83.688955 -161.354303 
L 83.376746 -161.157384 
L 83.064536 -161.119453 
L 82.752326 -161.094596 
L 82.440117 -161.085146 
L 82.127907 -161.091431 
L 81.815697 -161.173461 
L 81.503487 -160.943362 
L 81.191278 -160.938238 
L 80.879068 -160.887573 
L 80.566858 -160.886838 
L 80.254649 -161.083356 
L 79.942439 -161.09171 
L 79.630229 -161.060623 
L 79.31802 -160.955295 
L 79.00581 -161.157274 
L 78.6936 -161.064341 
L 78.381391 -161.148265 
L 78.069181 -161.01658 
L 77.756971 -161.129579 
L 77.444761 -160.928625 
L 77.132552 -161.075344 
L 76.820342 -161.179376 
L 76.508132 -160.99831 
L 76.195923 -161.027905 
L 75.883713 -161.080075 
L 75.571503 -161.019932 
L 75.259294 -161.054244 
L 74.947084 -161.04879 
L 74.634874 -161.055874 
L 74.322665 -161.018897 
L 74.010455 -160.89721 
L 73.698245 -160.753002 
L 73.386035 -160.663811 
L 73.073826 -160.500075 
L 72.761616 -160.360084 
L 72.449406 -160.1827 
L 72.137197 -160.024752 
L 71.824987 -159.802806 
L 71.512777 -159.678345 
L 71.200568 -159.634027 
L 70.888358 -159.582462 
L 70.576148 -159.621408 
L 70.263938 -159.640472 
L 69.951729 -159.727873 
L 69.639519 -159.845536 
L 69.327309 -160.036175 
L 69.0151 -160.289734 
L 68.70289 -160.605011 
L 68.39068 -160.997627 
L 68.078471 -161.54056 
L 67.766261 -162.189143 
L 67.454051 -162.979568 
L 67.141842 -163.749963 
L 66.829632 -164.19906 
z
" style="stroke: #2b5c8f; stroke-opacity: 0.06"/>
    </defs>
    <g clip-path="url(#p06930cc0d8)">
     <use xlink:href="#m0095b6e272" x="0" y="197.881969" style="fill: #2b5c8f; fill-opacity: 0.06; stroke: #2b5c8f; stroke-opacity: 0.06"/>
    </g>
   </g>
   <g id="matplotlib.axis_1">
    <g id="xtick_1">
     <g id="line2d_1">
      <path d="M 66.829632 166.464 
L 66.829632 27.36 
" clip-path="url(#p06930cc0d8)" style="fill: none; stroke: #e8e8e8; stroke-opacity: 0.25; stroke-width: 0.3; stroke-linecap: square"/>
     </g>
     <g id="line2d_2">
      <defs>
       <path id="mcb52dc796b" d="M 0 0 
L 0 3 
" style="stroke: #000000; stroke-width: 0.6"/>
      </defs>
      <g>
       <use xlink:href="#mcb52dc796b" x="66.829632" y="166.464" style="stroke: #000000; stroke-width: 0.6"/>
      </g>
     </g>
     <g id="text_1">
      <text style="font-size: 7px; font-family: 'Arial', 'Helvetica', 'DejaVu Sans', sans-serif; text-anchor: middle" x="66.829632" y="177.974469" transform="rotate(-0 66.829632 177.974469)">0</text>
     </g>
    </g>
    <g id="xtick_2">
     <g id="line2d_3">
      <path d="M 98.050601 166.464 
L 98.050601 27.36 
" clip-path="url(#p06930cc0d8)" style="fill: none; stroke: #e8e8e8; stroke-opacity: 0.25; stroke-width: 0.3; stroke-linecap: square"/>
     </g>
     <g id="line2d_4">
      <g>
       <use xlink:href="#mcb52dc796b" x="98.050601" y="166.464" style="stroke: #000000; stroke-width: 0.6"/>
      </g>
     </g>
     <g id="text_2">
      <text style="font-size: 7px; font-family: 'Arial', 'Helvetica', 'DejaVu Sans', sans-serif; text-anchor: middle" x="98.050601" y="177.974469" transform="rotate(-0 98.050601 177.974469)">100</text>
     </g>
    </g>
    <g id="xtick_3">
     <g id="line2d_5">
      <path d="M 129.271571 166.464 
L 129.271571 27.36 
" clip-path="url(#p06930cc0d8)" style="fill: none; stroke: #e8e8e8; stroke-opacity: 0.25; stroke-width: 0.3; stroke-linecap: square"/>
     </g>
     <g id="line2d_6">
      <g>
       <use xlink:href="#mcb52dc796b" x="129.271571" y="166.464" style="stroke: #000000; stroke-width: 0.6"/>
      </g>
     </g>
     <g id="text_3">
      <text style="font-size: 7px; font-family: 'Arial', 'Helvetica', 'DejaVu Sans', sans-serif; text-anchor: middle" x="129.271571" y="177.974469" transform="rotate(-0 129.271571 177.974469)">200</text>
     </g>
    </g>
    <g id="xtick_4">
     <g id="line2d_7">
      <path d="M 160.49254 166.464 
L 160.49254 27.36 
" clip-path="url(#p06930cc0d8)" style="fill: none; stroke: #e8e8e8; stroke-opacity: 0.25; stroke-width: 0.3; stroke-linecap: square"/>
     </g>
     <g id="line2d_8">
      <g>
       <use xlink:href="#mcb52dc796b" x="160.49254" y="166.464" style="stroke: #000000; stroke-width: 0.6"/>
      </g>
     </g>
     <g id="text_4">
      <text style="font-size: 7px; font-family: 'Arial', 'Helvetica', 'DejaVu Sans', sans-serif; text-anchor: middle" x="160.49254" y="177.974469" transform="rotate(-0 160.49254 177.974469)">300</text>
     </g>
    </g>
    <g id="xtick_5">
     <g id="line2d_9">
      <path d="M 191.713509 166.464 
L 191.713509 27.36 
" clip-path="url(#p06930cc0d8)" style="fill: none; stroke: #e8e8e8; stroke-opacity: 0.25; stroke-width: 0.3; stroke-linecap: square"/>
     </g>
     <g id="line2d_10">
      <g>
       <use xlink:href="#mcb52dc796b" x="191.713509" y="166.464" style="stroke: #000000; stroke-width: 0.6"/>
      </g>
     </g>
     <g id="text_5">
      <text style="font-size: 7px; font-family: 'Arial', 'Helvetica', 'DejaVu Sans', sans-serif; text-anchor: middle" x="191.713509" y="177.974469" transform="rotate(-0 191.713509 177.974469)">400</text>
     </g>
    </g>
    <g id="xtick_6">
     <g id="line2d_11">
      <path d="M 222.934479 166.464 
L 222.934479 27.36 
" clip-path="url(#p06930cc0d8)" style="fill: none; stroke: #e8e8e8; stroke-opacity: 0.25; stroke-width: 0.3; stroke-linecap: square"/>
     </g>
     <g id="line2d_12">
      <g>
       <use xlink:href="#mcb52dc796b" x="222.934479" y="166.464" style="stroke: #000000; stroke-width: 0.6"/>
      </g>
     </g>
     <g id="text_6">
      <text style="font-size: 7px; font-family: 'Arial', 'Helvetica', 'DejaVu Sans', sans-serif; text-anchor: middle" x="222.934479" y="177.974469" transform="rotate(-0 222.934479 177.974469)">500</text>
     </g>
    </g>
    <g id="text_7">
     <text style="font-size: 8px; font-family: 'Arial', 'Helvetica', 'DejaVu Sans', sans-serif; text-anchor: middle" x="144.72595" y="189.091969" transform="rotate(-0 144.72595 189.091969)">Epoch</text>
    </g>
   </g>
   <g id="matplotlib.axis_2">
    <g id="ytick_1">
     <g id="line2d_13">
      <path d="M 59.04 144.019094 
L 230.411901 144.019094 
" clip-path="url(#p06930cc0d8)" style="fill: none; stroke: #e8e8e8; stroke-opacity: 0.25; stroke-width: 0.3; stroke-linecap: square"/>
     </g>
     <g id="line2d_14">
      <defs>
       <path id="m8115bc09c6" d="M 0 0 
L -3 0 
" style="stroke: #000000; stroke-width: 0.6"/>
      </defs>
      <g>
       <use xlink:href="#m8115bc09c6" x="59.04" y="144.019094" style="stroke: #000000; stroke-width: 0.6"/>
      </g>
     </g>
     <g id="text_8">
      <text style="font-size: 7px; font-family: 'Arial', 'Helvetica', 'DejaVu Sans', sans-serif; text-anchor: end" x="52.54" y="146.524329" transform="rotate(-0 52.54 146.524329)">-40</text>
     </g>
    </g>
    <g id="ytick_2">
     <g id="line2d_15">
      <path d="M 59.04 116.294731 
L 230.411901 116.294731 
" clip-path="url(#p06930cc0d8)" style="fill: none; stroke: #e8e8e8; stroke-opacity: 0.25; stroke-width: 0.3; stroke-linecap: square"/>
     </g>
     <g id="line2d_16">
      <g>
       <use xlink:href="#m8115bc09c6" x="59.04" y="116.294731" style="stroke: #000000; stroke-width: 0.6"/>
      </g>
     </g>
     <g id="text_9">
      <text style="font-size: 7px; font-family: 'Arial', 'Helvetica', 'DejaVu Sans', sans-serif; text-anchor: end" x="52.54" y="118.799966" transform="rotate(-0 52.54 118.799966)">-30</text>
     </g>
    </g>
    <g id="ytick_3">
     <g id="line2d_17">
      <path d="M 59.04 88.570369 
L 230.411901 88.570369 
" clip-path="url(#p06930cc0d8)" style="fill: none; stroke: #e8e8e8; stroke-opacity: 0.25; stroke-width: 0.3; stroke-linecap: square"/>
     </g>
     <g id="line2d_18">
      <g>
       <use xlink:href="#m8115bc09c6" x="59.04" y="88.570369" style="stroke: #000000; stroke-width: 0.6"/>
      </g>
     </g>
     <g id="text_10">
      <text style="font-size: 7px; font-family: 'Arial', 'Helvetica', 'DejaVu Sans', sans-serif; text-anchor: end" x="52.54" y="91.075603" transform="rotate(-0 52.54 91.075603)">-20</text>
     </g>
    </g>
    <g id="ytick_4">
     <g id="line2d_19">
      <path d="M 59.04 60.846006 
L 230.411901 60.846006 
" clip-path="url(#p06930cc0d8)" style="fill: none; stroke: #e8e8e8; stroke-opacity: 0.25; stroke-width: 0.3; stroke-linecap: square"/>
     </g>
     <g id="line2d_20">
      <g>
       <use xlink:href="#m8115bc09c6" x="59.04" y="60.846006" style="stroke: #000000; stroke-width: 0.6"/>
      </g>
     </g>
     <g id="text_11">
      <text style="font-size: 7px; font-family: 'Arial', 'Helvetica', 'DejaVu Sans', sans-serif; text-anchor: end" x="52.54" y="63.35124" transform="rotate(-0 52.54 63.35124)">-10</text>
     </g>
    </g>
    <g id="ytick_5">
     <g id="line2d_21">
      <path d="M 59.04 33.121643 
L 230.411901 33.121643 
" clip-path="url(#p06930cc0d8)" style="fill: none; stroke: #e8e8e8; stroke-opacity: 0.25; stroke-width: 0.3; stroke-linecap: square"/>
     </g>
     <g id="line2d_22">
      <g>
       <use xlink:href="#m8115bc09c6" x="59.04" y="33.121643" style="stroke: #000000; stroke-width: 0.6"/>
      </g>
     </g>
     <g id="text_12">
      <text style="font-size: 7px; font-family: 'Arial', 'Helvetica', 'DejaVu Sans', sans-serif; text-anchor: end" x="52.54" y="35.626877" transform="rotate(-0 52.54 35.626877)">0</text>
     </g>
    </g>
    <g id="text_13">
     <text style="font-size: 8px; font-family: 'Arial', 'Helvetica', 'DejaVu Sans', sans-serif; text-anchor: middle" x="36.833906" y="96.912" transform="rotate(-90 36.833906 96.912)">Q-value</text>
    </g>
   </g>
   <g id="line2d_23">
    <path d="M 66.829632 33.682909 
L 67.141842 34.132006 
L 68.078471 36.341409 
L 68.70289 37.276958 
L 69.327309 37.845794 
L 69.951729 38.154096 
L 70.576148 38.260561 
L 71.200568 38.247942 
L 71.824987 38.079163 
L 72.761616 37.521885 
L 74.322665 36.863072 
L 75.259294 36.827725 
L 76.508132 36.883658 
L 76.820342 36.702593 
L 77.444761 36.953344 
L 77.756971 36.75239 
L 78.069181 36.865388 
L 78.381391 36.733704 
L 78.6936 36.817628 
L 79.00581 36.724695 
L 79.31802 36.926673 
L 79.942439 36.790258 
L 80.254649 36.798613 
L 80.566858 36.99513 
L 81.503487 36.938607 
L 81.815697 36.708508 
L 82.440117 36.796823 
L 83.376746 36.724585 
L 83.688955 36.527666 
L 86.186633 36.930524 
L 87.435472 36.992623 
L 87.747681 37.259441 
L 88.372101 36.812893 
L 88.68431 36.970447 
L 88.99652 36.798456 
L 89.620939 37.134445 
L 89.933149 36.975694 
L 90.245359 37.039757 
L 90.557569 36.975345 
L 91.181988 37.016669 
L 91.494198 36.996836 
L 91.806407 36.807494 
L 92.430827 36.889464 
L 92.743036 37.037039 
L 93.055246 36.911352 
L 94.304085 37.21483 
L 94.616295 37.098467 
L 95.240714 37.138981 
L 95.552924 37.056812 
L 96.177343 36.55221 
L 96.489553 36.716746 
L 97.426182 36.764065 
L 97.738392 36.509201 
L 98.362811 36.800036 
L 98.675021 36.845683 
L 98.98723 36.589405 
L 99.29944 36.783123 
L 99.61165 36.829513 
L 99.923859 36.64012 
L 100.548279 36.839535 
L 100.860488 36.66915 
L 101.172698 36.826706 
L 101.797118 36.816839 
L 102.421537 36.891246 
L 102.733747 37.249731 
L 103.045956 36.827419 
L 103.670376 37.016277 
L 103.982585 37.224692 
L 104.294795 36.683906 
L 104.607005 37.028477 
L 104.919214 37.024401 
L 105.231424 36.730631 
L 105.543634 36.729452 
L 105.855844 36.575383 
L 106.168053 36.743908 
L 106.480263 36.557153 
L 106.792473 36.762252 
L 107.104682 36.60274 
L 107.416892 36.576098 
L 108.041311 36.783306 
L 108.665731 36.449584 
L 108.97794 36.584414 
L 109.29015 36.490006 
L 109.60236 36.517687 
L 109.91457 36.658524 
L 111.163408 36.583232 
L 111.475618 36.744343 
L 112.100037 36.569975 
L 112.412247 37.010909 
L 112.724457 36.500794 
L 113.348876 36.682312 
L 113.661086 36.460673 
L 113.973296 36.481556 
L 114.285505 36.219478 
L 114.597715 36.57374 
L 114.909925 36.361001 
L 115.222134 36.460059 
L 115.534344 36.692391 
L 115.846554 36.382036 
L 116.158763 36.441644 
L 116.470973 36.684122 
L 116.783183 36.491083 
L 117.095393 36.135578 
L 117.407602 36.595537 
L 118.032022 36.329219 
L 118.344231 36.827795 
L 118.656441 36.343484 
L 118.968651 36.291518 
L 119.28086 36.406626 
L 119.59307 36.125858 
L 119.90528 36.56269 
L 120.217489 36.428714 
L 120.529699 36.63772 
L 120.841909 36.174231 
L 121.154119 36.742205 
L 121.466328 36.294669 
L 121.778538 36.556067 
L 122.090748 36.268882 
L 122.402957 36.237753 
L 122.715167 36.462172 
L 123.027377 36.134672 
L 123.339586 36.255824 
L 123.651796 36.063235 
L 123.964006 36.355692 
L 124.276215 35.990752 
L 124.900635 36.006046 
L 125.212845 36.309643 
L 125.837264 36.058386 
L 126.773893 36.639358 
L 127.086103 35.822175 
L 127.398312 36.527426 
L 128.334941 36.260307 
L 128.647151 36.427387 
L 128.959361 36.295045 
L 129.271571 36.615092 
L 129.58378 36.038592 
L 129.89599 36.1793 
L 130.2082 36.099579 
L 130.520409 35.667002 
L 130.832619 35.75198 
L 131.144829 35.475245 
L 131.457038 35.861729 
L 131.769248 35.799636 
L 132.081458 35.614818 
L 132.705877 35.496193 
L 133.018087 35.232613 
L 133.642506 35.669621 
L 134.579135 35.509239 
L 134.891345 35.298938 
L 135.203555 35.713255 
L 135.827974 35.412109 
L 136.140184 35.655567 
L 136.452394 35.640846 
L 136.764603 35.392158 
L 137.076813 35.549373 
L 137.389023 35.542227 
L 138.013442 35.847486 
L 138.325652 35.411108 
L 138.637861 35.817288 
L 138.950071 35.391509 
L 139.8867 35.679687 
L 140.19891 35.684292 
L 140.51112 35.917097 
L 140.823329 35.605866 
L 141.447749 36.031794 
L 141.759958 35.483098 
L 142.072168 35.596434 
L 142.384378 35.438771 
L 142.696587 35.729271 
L 143.008797 35.506326 
L 143.633216 36.263446 
L 143.945426 35.951472 
L 145.194265 36.05761 
L 145.506475 35.327201 
L 145.818684 36.328822 
L 146.130894 35.671048 
L 146.443104 36.28326 
L 146.755313 36.029801 
L 147.067523 36.035845 
L 147.379733 36.333274 
L 147.691943 36.007851 
L 148.316362 36.064394 
L 148.940781 36.914696 
L 149.252991 36.201155 
L 149.87741 36.528178 
L 150.18962 36.207913 
L 150.50183 36.240014 
L 150.814039 36.638307 
L 151.126249 35.934931 
L 151.438459 36.404807 
L 151.750669 36.499378 
L 152.062878 36.247431 
L 152.375088 36.577625 
L 152.687298 36.410587 
L 152.999507 36.713806 
L 153.311717 36.414728 
L 153.936136 36.941481 
L 154.872765 36.289407 
L 155.497185 36.777556 
L 155.809395 36.705127 
L 156.121604 35.996364 
L 156.433814 36.76492 
L 156.746024 36.824636 
L 157.058233 37.156141 
L 157.370443 37.03539 
L 157.994862 37.414915 
L 158.307072 36.848223 
L 158.619282 37.025625 
L 158.931491 37.445638 
L 159.243701 36.905404 
L 159.868121 36.900041 
L 160.18033 37.598789 
L 160.49254 36.878567 
L 160.80475 36.876778 
L 161.116959 37.314231 
L 161.429169 37.545389 
L 161.741379 36.903649 
L 162.053588 36.992713 
L 162.365798 37.408702 
L 162.990217 36.933935 
L 163.302427 37.13 
L 163.614637 37.031106 
L 163.926847 37.944249 
L 164.239056 36.806605 
L 164.551266 37.10435 
L 164.863476 37.589413 
L 165.175685 36.799739 
L 165.487895 37.751348 
L 165.800105 36.993021 
L 166.112314 37.182778 
L 166.424524 37.71193 
L 167.048944 37.142142 
L 167.673363 37.137674 
L 167.985573 37.578308 
L 168.609992 36.59135 
L 168.922202 36.718847 
L 169.234411 37.305077 
L 169.546621 36.553297 
L 169.858831 37.190498 
L 170.17104 37.186675 
L 170.48325 37.013565 
L 170.79546 36.393655 
L 171.10767 36.788029 
L 171.419879 36.73321 
L 171.732089 36.440575 
L 172.044299 37.15475 
L 172.356508 36.813343 
L 172.980928 36.803648 
L 173.293137 37.075483 
L 173.917557 37.240548 
L 174.541976 36.147652 
L 174.854186 37.490306 
L 175.166396 36.912374 
L 175.478605 37.030477 
L 176.103025 36.696719 
L 176.415234 36.98048 
L 176.727444 37.549871 
L 177.664073 37.155933 
L 177.976283 36.698357 
L 178.288492 36.808982 
L 178.912912 37.62506 
L 179.225122 37.030453 
L 179.537331 36.742606 
L 179.849541 36.940592 
L 180.161751 36.834421 
L 180.78617 37.201887 
L 181.09838 36.741614 
L 181.410589 36.634694 
L 181.722799 36.885892 
L 182.035009 36.752395 
L 182.347218 37.220961 
L 182.971638 36.944483 
L 183.283848 36.924603 
L 183.596057 37.264292 
L 184.220477 37.319989 
L 184.532686 37.71391 
L 185.469315 37.192429 
L 185.781525 37.594208 
L 186.093735 36.832413 
L 186.405945 37.579957 
L 186.718154 37.988714 
L 187.030364 37.956191 
L 187.342574 37.444072 
L 187.654783 37.517236 
L 187.966993 37.072839 
L 188.279203 37.412449 
L 188.591412 37.560541 
L 188.903622 37.488718 
L 189.215832 37.703648 
L 189.528041 38.286019 
L 190.152461 37.146069 
L 190.77688 37.605405 
L 191.4013 37.206891 
L 191.713509 37.708298 
L 192.025719 37.068201 
L 192.650138 37.725797 
L 193.274558 37.944886 
L 193.586767 37.073755 
L 193.898977 38.082369 
L 194.211187 36.85403 
L 194.523397 37.569299 
L 194.835606 37.453348 
L 195.147816 37.570307 
L 195.772235 37.18685 
L 196.084445 37.334417 
L 196.396655 37.87972 
L 196.708864 37.641814 
L 197.021074 37.862891 
L 197.333284 37.193784 
L 197.957703 37.419557 
L 198.269913 36.893034 
L 198.894332 37.908377 
L 199.206542 37.351067 
L 199.518752 37.201005 
L 199.830961 37.379613 
L 200.143171 36.775597 
L 200.455381 37.554356 
L 201.0798 37.579592 
L 201.39201 36.588727 
L 201.704219 37.425294 
L 202.016429 36.48962 
L 202.328639 37.351069 
L 202.640849 37.210759 
L 202.953058 37.846539 
L 203.265268 37.952456 
L 203.577478 37.130967 
L 203.889687 37.279043 
L 204.201897 37.166857 
L 204.514107 38.609324 
L 204.826316 37.459836 
L 205.138526 37.690804 
L 205.450736 37.274601 
L 205.762946 37.595604 
L 206.075155 36.698606 
L 206.387365 36.827203 
L 206.699575 37.872476 
L 207.011784 36.967997 
L 207.636204 38.448066 
L 207.948413 36.976757 
L 208.260623 37.38168 
L 208.572833 37.507348 
L 208.885042 36.740551 
L 209.197252 37.422729 
L 209.509462 37.660204 
L 209.821672 38.178575 
L 210.133881 37.625298 
L 210.446091 37.737926 
L 210.758301 38.103783 
L 211.07051 37.010554 
L 211.38272 37.60863 
L 212.007139 37.461874 
L 212.631559 37.179452 
L 212.943768 37.500703 
L 213.255978 37.343552 
L 213.568188 37.937772 
L 213.880398 38.23291 
L 214.192607 37.413002 
L 214.504817 37.460115 
L 214.817027 37.361521 
L 215.129236 37.408806 
L 215.441446 37.976524 
L 215.753656 37.380376 
L 216.065865 37.351387 
L 216.378075 38.05107 
L 216.690285 37.211083 
L 217.002494 37.130024 
L 217.314704 37.680939 
L 217.626914 36.980377 
L 217.939124 37.811132 
L 218.251333 37.360633 
L 218.563543 37.16421 
L 218.875753 37.735203 
L 219.187962 37.223639 
L 219.500172 37.0904 
L 219.812382 37.452188 
L 220.124591 37.209202 
L 220.436801 37.578958 
L 220.749011 37.632518 
L 221.37343 37.371026 
L 221.68564 37.965816 
L 221.99785 38.265882 
L 222.310059 37.217963 
L 222.622269 37.548087 
L 222.622269 37.548087 
" clip-path="url(#p06930cc0d8)" style="fill: none; stroke: #2b5c8f; stroke-linecap: square"/>
   </g>
   <g id="line2d_24">
    <path d="M 66.829632 37.412439 
L 67.141842 41.89693 
L 67.766261 44.139303 
L 68.39068 47.475688 
L 69.327309 50.847756 
L 69.951729 52.410111 
L 70.576148 53.469945 
L 71.200568 54.711499 
L 71.512777 55.020848 
L 72.137197 56.133152 
L 72.761616 56.531157 
L 73.073826 57.374147 
L 73.386035 57.461553 
L 73.698245 58.061269 
L 74.322665 59.831462 
L 75.571503 62.451856 
L 75.883713 62.829363 
L 76.195923 63.702405 
L 76.508132 64.107506 
L 77.444761 66.353643 
L 77.756971 66.709626 
L 78.381391 67.736483 
L 78.6936 67.262547 
L 79.31802 70.490048 
L 79.630229 70.633714 
L 79.942439 69.774554 
L 80.566858 72.080594 
L 80.879068 72.523005 
L 81.503487 73.947575 
L 81.815697 74.001004 
L 82.127907 75.520995 
L 82.440117 76.02321 
L 82.752326 77.02149 
L 83.064536 76.973839 
L 83.376746 78.006469 
L 83.688955 77.953528 
L 84.001165 79.157637 
L 84.313375 79.387311 
L 84.625584 80.591425 
L 85.250004 81.92266 
L 85.562213 81.899531 
L 85.874423 83.240855 
L 86.498843 83.221295 
L 86.811052 84.300515 
L 87.435472 84.876142 
L 87.747681 86.003529 
L 88.059891 84.946877 
L 88.372101 86.732058 
L 88.68431 87.684066 
L 88.99652 86.985585 
L 89.30873 88.567142 
L 89.620939 89.346376 
L 89.933149 89.112901 
L 90.869778 91.133681 
L 91.181988 91.304542 
L 91.494198 90.864118 
L 93.055246 94.807405 
L 93.367456 94.532905 
L 93.679666 95.930944 
L 94.304085 96.524203 
L 94.616295 97.387871 
L 94.928504 96.38403 
L 95.240714 97.297056 
L 95.552924 97.286615 
L 95.865133 97.046617 
L 96.177343 98.006288 
L 96.489553 98.214381 
L 96.801762 98.561518 
L 97.113972 99.889165 
L 97.426182 100.266721 
L 98.050601 101.586565 
L 98.675021 102.167715 
L 99.29944 103.833633 
L 99.61165 103.317349 
L 100.548279 105.998278 
L 100.860488 106.624778 
L 101.172698 106.209722 
L 102.109327 109.19906 
L 102.421537 108.683656 
L 102.733747 110.090934 
L 103.045956 110.179671 
L 103.670376 111.110221 
L 103.982585 111.495933 
L 104.294795 111.533952 
L 104.607005 112.846256 
L 105.231424 111.855794 
L 105.543634 112.21222 
L 106.168053 114.04244 
L 106.480263 114.296963 
L 106.792473 115.604187 
L 107.104682 114.634159 
L 107.416892 115.114892 
L 108.041311 116.828538 
L 108.665731 115.91792 
L 109.29015 117.052629 
L 109.60236 118.058582 
L 109.91457 119.507972 
L 110.226779 119.187305 
L 110.538989 118.437576 
L 110.851199 119.591482 
L 111.163408 120.27401 
L 111.787828 119.191527 
L 112.412247 121.766984 
L 112.724457 119.384814 
L 113.036667 120.655403 
L 113.973296 122.605901 
L 114.285505 121.637891 
L 114.597715 122.683736 
L 115.534344 123.526696 
L 115.846554 123.049845 
L 116.470973 124.527368 
L 116.783183 123.259082 
L 117.095393 123.620164 
L 117.407602 125.052866 
L 117.719812 124.838149 
L 118.032022 125.070877 
L 118.344231 125.751774 
L 118.656441 124.616063 
L 119.28086 125.117866 
L 119.90528 126.382073 
L 120.217489 126.410268 
L 120.529699 126.664254 
L 120.841909 126.733472 
L 121.154119 128.033624 
L 121.466328 127.629684 
L 121.778538 125.728559 
L 122.090748 126.238202 
L 122.402957 127.012804 
L 122.715167 127.361756 
L 123.339586 128.746499 
L 123.651796 128.231575 
L 123.964006 128.606429 
L 124.276215 127.886939 
L 124.588425 128.29268 
L 124.900635 128.178904 
L 125.212845 129.276211 
L 125.525054 128.962355 
L 125.837264 129.186586 
L 126.149474 129.687088 
L 126.773893 131.181154 
L 127.086103 130.41621 
L 127.398312 131.81446 
L 127.710522 131.638894 
L 128.334941 130.589257 
L 128.647151 130.226012 
L 128.959361 131.591504 
L 129.271571 131.448107 
L 129.58378 129.610537 
L 129.89599 130.941079 
L 130.2082 129.397646 
L 130.832619 130.193177 
L 131.144829 131.105042 
L 131.457038 131.470474 
L 132.081458 131.665435 
L 132.393668 131.487241 
L 132.705877 131.786961 
L 133.018087 132.335785 
L 133.330297 133.242686 
L 133.642506 133.377369 
L 133.954716 132.472373 
L 134.266926 131.963593 
L 134.579135 133.038245 
L 134.891345 133.206319 
L 135.203555 134.241046 
L 135.515764 134.526967 
L 135.827974 135.088273 
L 136.140184 134.981404 
L 136.452394 135.628353 
L 136.764603 135.319842 
L 137.701232 137.207053 
L 138.013442 136.987301 
L 138.325652 135.897676 
L 138.637861 136.203973 
L 139.262281 137.510468 
L 139.57449 137.368904 
L 140.51112 139.251247 
L 141.135539 139.646272 
L 141.447749 137.594043 
L 141.759958 137.553116 
L 142.072168 138.117811 
L 142.384378 137.603006 
L 143.008797 139.026796 
L 143.321007 138.982121 
L 143.633216 139.391808 
L 144.257636 139.168433 
L 144.882055 139.43969 
L 145.506475 137.817849 
L 145.818684 140.688599 
L 146.130894 140.78334 
L 146.443104 142.107314 
L 146.755313 141.083837 
L 147.067523 141.404582 
L 147.379733 141.19948 
L 148.004152 142.028748 
L 148.316362 142.268742 
L 148.628572 142.949012 
L 148.940781 145.191153 
L 149.252991 144.614786 
L 149.565201 143.392217 
L 149.87741 141.18047 
L 150.18962 141.843158 
L 150.50183 140.855336 
L 150.814039 141.066955 
L 152.062878 148.471273 
L 152.375088 148.001268 
L 152.999507 149.558788 
L 153.311717 149.784013 
L 153.623927 150.546078 
L 153.936136 150.411043 
L 154.560556 149.839235 
L 154.872765 150.912518 
L 155.184975 151.106469 
L 155.497185 148.442857 
L 156.433814 152.442381 
L 156.746024 152.346965 
L 157.058233 152.921606 
L 157.370443 152.229909 
L 157.682653 153.384464 
L 158.307072 153.475385 
L 158.619282 153.791355 
L 158.931491 153.255918 
L 159.243701 153.574694 
L 159.555911 154.246218 
L 159.868121 153.728526 
L 160.18033 154.223499 
L 160.49254 153.847764 
L 160.80475 153.26514 
L 161.116959 152.396039 
L 161.429169 153.740773 
L 161.741379 153.285498 
L 162.053588 153.440538 
L 162.365798 152.82253 
L 162.678008 152.820908 
L 162.990217 153.013951 
L 163.302427 153.021012 
L 163.614637 153.302314 
L 163.926847 154.445053 
L 164.239056 153.542814 
L 164.551266 153.429841 
L 164.863476 154.16187 
L 165.175685 153.160348 
L 165.487895 154.128971 
L 165.800105 153.706391 
L 166.112314 154.570683 
L 166.424524 152.874012 
L 166.736734 152.892965 
L 167.048944 152.538324 
L 167.361153 153.441166 
L 167.673363 153.210153 
L 167.985573 153.427729 
L 168.297782 152.465594 
L 168.609992 152.163644 
L 168.922202 153.55967 
L 169.546621 152.861317 
L 169.858831 153.873989 
L 170.48325 150.592125 
L 170.79546 150.884478 
L 171.10767 152.959703 
L 171.419879 153.130265 
L 171.732089 152.413874 
L 172.044299 153.486628 
L 172.356508 153.276714 
L 172.980928 153.32318 
L 173.293137 154.211918 
L 173.605347 154.418828 
L 174.229766 151.656925 
L 174.854186 155.55641 
L 175.166396 154.772183 
L 175.478605 153.499209 
L 175.790815 154.17889 
L 176.103025 154.40576 
L 176.415234 155.403064 
L 176.727444 156.773961 
L 177.039654 156.438982 
L 177.351863 155.49953 
L 177.664073 156.936783 
L 177.976283 155.729194 
L 178.288492 155.838225 
L 178.912912 157.110142 
L 179.225122 157.351895 
L 179.537331 155.758246 
L 179.849541 156.638324 
L 180.161751 156.514124 
L 180.47396 157.425359 
L 180.78617 157.268707 
L 181.09838 156.877079 
L 181.722799 156.457767 
L 182.035009 156.503245 
L 182.347218 157.52771 
L 182.659428 157.4054 
L 182.971638 158.055223 
L 183.283848 157.799117 
L 183.596057 157.82026 
L 183.908267 158.701708 
L 184.220477 157.853999 
L 184.532686 159.502156 
L 184.844896 159.11989 
L 185.157106 158.425341 
L 185.469315 158.807495 
L 185.781525 156.818022 
L 186.093735 155.957611 
L 186.405945 158.760122 
L 186.718154 159.014438 
L 187.030364 158.729287 
L 187.342574 159.014379 
L 187.654783 159.988925 
L 187.966993 158.769201 
L 188.279203 160.141091 
L 188.591412 159.135985 
L 188.903622 155.975365 
L 189.215832 158.418864 
L 189.528041 158.285546 
L 189.840251 157.625541 
L 190.152461 155.996304 
L 190.464671 158.154583 
L 190.77688 157.347906 
L 191.08909 158.502066 
L 191.4013 156.973602 
L 191.713509 158.054818 
L 192.025719 158.409137 
L 192.337929 158.999541 
L 192.962348 156.860796 
L 193.274558 157.798803 
L 193.586767 156.316206 
L 193.898977 158.12581 
L 194.523397 157.038235 
L 194.835606 157.953074 
L 195.147816 156.676097 
L 195.460026 156.871626 
L 195.772235 157.199524 
L 196.084445 157.363773 
L 196.396655 157.933494 
L 197.021074 157.273982 
L 197.333284 156.773519 
L 197.645493 157.268879 
L 197.957703 158.231312 
L 198.269913 157.429302 
L 198.894332 157.677172 
L 199.518752 157.556385 
L 199.830961 158.124706 
L 200.143171 156.264429 
L 200.455381 156.56626 
L 200.76759 156.496019 
L 201.0798 155.379118 
L 201.39201 154.992807 
L 201.704219 156.031145 
L 202.016429 155.721582 
L 202.640849 157.269641 
L 202.953058 156.919301 
L 203.265268 157.299436 
L 203.577478 156.933559 
L 204.201897 155.778118 
L 204.514107 157.329375 
L 204.826316 156.897332 
L 205.138526 156.926188 
L 205.450736 155.39766 
L 205.762946 157.4959 
L 206.075155 156.41528 
L 206.387365 155.907763 
L 206.699575 157.429302 
L 207.011784 155.814913 
L 207.323994 157.324822 
L 207.636204 157.034143 
L 207.948413 155.29526 
L 208.572833 156.957155 
L 208.885042 156.616457 
L 209.197252 157.676826 
L 209.821672 155.675166 
L 210.133881 157.584127 
L 210.446091 156.776516 
L 210.758301 155.378711 
L 211.07051 155.446856 
L 211.38272 156.621077 
L 212.007139 156.999364 
L 212.319349 155.167384 
L 212.943768 155.490982 
L 213.255978 156.648445 
L 213.568188 157.16296 
L 213.880398 157.028128 
L 214.504817 156.086766 
L 214.817027 154.093735 
L 215.129236 155.102853 
L 215.441446 155.067839 
L 215.753656 154.7938 
L 216.065865 155.018276 
L 216.690285 157.098469 
L 217.314704 155.611806 
L 217.939124 157.318883 
L 218.563543 155.879449 
L 218.875753 156.149104 
L 219.187962 155.897766 
L 219.500172 155.261441 
L 220.124591 156.054892 
L 220.436801 156.998691 
L 220.749011 156.20487 
L 221.061221 155.104152 
L 221.37343 154.731738 
L 221.68564 153.953322 
L 221.99785 154.83214 
L 222.622269 155.179234 
L 222.622269 155.179234 
" clip-path="url(#p06930cc0d8)" style="fill: none; stroke-dasharray: 2.96,1.28; stroke-dashoffset: 0; stroke: #7f7f7f; stroke-width: 0.8"/>
   </g>
   <g id="patch_3">
    <path d="M 59.04 166.464 
L 59.04 27.36 
" style="fill: none; stroke: #000000; stroke-width: 0.8; stroke-linejoin: miter; stroke-linecap: square"/>
   </g>
   <g id="patch_4">
    <path d="M 59.04 166.464 
L 230.411901 166.464 
" style="fill: none; stroke: #000000; stroke-width: 0.8; stroke-linejoin: miter; stroke-linecap: square"/>
   </g>
   <g id="patch_5">
    <path d="M 201.167048 27.695402 
Q 211.140687 32.209813 220.60505 36.493707 
" style="fill: none; stroke: #2b5c8f; stroke-width: 0.5; stroke-linecap: round"/>
    <path d="M 218.91343 34.410819 
L 220.60505 36.493707 
L 217.923767 36.59727 
" style="fill: none; stroke: #2b5c8f; stroke-width: 0.5; stroke-linecap: round"/>
   </g>
   <g id="text_14">
    <!-- $Q_{\mathrm{data}}$ = -1.6 -->
    <g style="fill: #2b5c8f" transform="translate(172.980928 23.685905)">
     <text>
      <tspan x="0" y="-0.546875" style="font-style: oblique; font-size: 6px; font-family: 'DejaVu Sans'; fill: #2b5c8f">Q</tspan>
      <tspan x="4.722656" y="0.4375" style="font-size: 4.2px; font-family: 'DejaVu Sans'; fill: #2b5c8f">d</tspan>
      <tspan x="7.388672" y="0.4375" style="font-size: 4.2px; font-family: 'DejaVu Sans'; fill: #2b5c8f">a</tspan>
      <tspan x="9.962402" y="0.4375" style="font-size: 4.2px; font-family: 'DejaVu Sans'; fill: #2b5c8f">t</tspan>
      <tspan x="11.60918" y="0.4375" style="font-size: 4.2px; font-family: 'DejaVu Sans'; fill: #2b5c8f">a</tspan>
      <tspan x="14.346973" y="-0.546875" style="font-weight: 700; font-size: 6px; font-family: 'Arial'; fill: #2b5c8f"> </tspan>
      <tspan x="16.013965" y="-0.546875" style="font-weight: 700; font-size: 6px; font-family: 'Arial'; fill: #2b5c8f">=</tspan>
      <tspan x="19.517871" y="-0.546875" style="font-weight: 700; font-size: 6px; font-family: 'Arial'; fill: #2b5c8f"> </tspan>
      <tspan x="21.184863" y="-0.546875" style="font-weight: 700; font-size: 6px; font-family: 'Arial'; fill: #2b5c8f">-</tspan>
      <tspan x="23.18291" y="-0.546875" style="font-weight: 700; font-size: 6px; font-family: 'Arial'; fill: #2b5c8f">1</tspan>
      <tspan x="26.519824" y="-0.546875" style="font-weight: 700; font-size: 6px; font-family: 'Arial'; fill: #2b5c8f">.</tspan>
      <tspan x="28.186816" y="-0.546875" style="font-weight: 700; font-size: 6px; font-family: 'Arial'; fill: #2b5c8f">6</tspan>
     </text>
    </g>
   </g>
   <g id="patch_6">
    <path d="M 198.000942 175.264457 
Q 209.690059 165.848282 220.943838 156.782795 
" style="fill: none; stroke: #7f7f7f; stroke-width: 0.5; stroke-linecap: round"/>
    <path d="M 218.322032 157.353873 
L 220.943838 156.782795 
L 219.827617 159.222887 
" style="fill: none; stroke: #7f7f7f; stroke-width: 0.5; stroke-linecap: round"/>
   </g>
   <g id="text_15">
    <!-- $Q_{\mathrm{rand}}$ = -44.0 -->
    <g style="fill: #7f7f7f" transform="translate(172.980928 182.903597)">
     <text>
      <tspan x="0" y="-0.546875" style="font-style: oblique; font-size: 6px; font-family: 'DejaVu Sans'; fill: #7f7f7f">Q</tspan>
      <tspan x="4.722656" y="0.4375" style="font-size: 4.2px; font-family: 'DejaVu Sans'; fill: #7f7f7f">r</tspan>
      <tspan x="6.449414" y="0.4375" style="font-size: 4.2px; font-family: 'DejaVu Sans'; fill: #7f7f7f">a</tspan>
      <tspan x="9.023145" y="0.4375" style="font-size: 4.2px; font-family: 'DejaVu Sans'; fill: #7f7f7f">n</tspan>
      <tspan x="11.685059" y="0.4375" style="font-size: 4.2px; font-family: 'DejaVu Sans'; fill: #7f7f7f">d</tspan>
      <tspan x="14.515137" y="-0.546875" style="font-size: 6px; font-family: 'Arial'; fill: #7f7f7f"> </tspan>
      <tspan x="16.182129" y="-0.546875" style="font-size: 6px; font-family: 'Arial'; fill: #7f7f7f">=</tspan>
      <tspan x="19.686035" y="-0.546875" style="font-size: 6px; font-family: 'Arial'; fill: #7f7f7f"> </tspan>
      <tspan x="21.353027" y="-0.546875" style="font-size: 6px; font-family: 'Arial'; fill: #7f7f7f">-</tspan>
      <tspan x="23.351074" y="-0.546875" style="font-size: 6px; font-family: 'Arial'; fill: #7f7f7f">4</tspan>
      <tspan x="26.687988" y="-0.546875" style="font-size: 6px; font-family: 'Arial'; fill: #7f7f7f">4</tspan>
      <tspan x="30.024902" y="-0.546875" style="font-size: 6px; font-family: 'Arial'; fill: #7f7f7f">.</tspan>
      <tspan x="31.691895" y="-0.546875" style="font-size: 6px; font-family: 'Arial'; fill: #7f7f7f">0</tspan>
     </text>
    </g>
   </g>
   <g id="text_16">
    <!-- a  Q-value Gap ($\Delta Q$ = 42) -->
    <g transform="translate(93.20095 21.36)">
     <text>
      <tspan x="0" y="-0.3125" style="font-size: 9px; font-family: 'Arial'">a</tspan>
      <tspan x="5.005371" y="-0.3125" style="font-size: 9px; font-family: 'Arial'"> </tspan>
      <tspan x="7.505859" y="-0.3125" style="font-size: 9px; font-family: 'Arial'"> </tspan>
      <tspan x="10.006348" y="-0.3125" style="font-size: 9px; font-family: 'Arial'">Q</tspan>
      <tspan x="17.006836" y="-0.3125" style="font-size: 9px; font-family: 'Arial'">-</tspan>
      <tspan x="20.003906" y="-0.3125" style="font-size: 9px; font-family: 'Arial'">v</tspan>
      <tspan x="24.503906" y="-0.3125" style="font-size: 9px; font-family: 'Arial'">a</tspan>
      <tspan x="29.509277" y="-0.3125" style="font-size: 9px; font-family: 'Arial'">l</tspan>
      <tspan x="31.508789" y="-0.3125" style="font-size: 9px; font-family: 'Arial'">u</tspan>
      <tspan x="36.51416" y="-0.3125" style="font-size: 9px; font-family: 'Arial'">e</tspan>
      <tspan x="41.519531" y="-0.3125" style="font-size: 9px; font-family: 'Arial'"> </tspan>
      <tspan x="44.02002" y="-0.3125" style="font-size: 9px; font-family: 'Arial'">G</tspan>
      <tspan x="51.020508" y="-0.3125" style="font-size: 9px; font-family: 'Arial'">a</tspan>
      <tspan x="56.025879" y="-0.3125" style="font-size: 9px; font-family: 'Arial'">p</tspan>
      <tspan x="61.03125" y="-0.3125" style="font-size: 9px; font-family: 'Arial'"> </tspan>
      <tspan x="63.531738" y="-0.3125" style="font-size: 9px; font-family: 'Arial'">(</tspan>
      <tspan x="79.769531" y="-0.3125" style="font-size: 9px; font-family: 'Arial'"> </tspan>
      <tspan x="82.27002" y="-0.3125" style="font-size: 9px; font-family: 'Arial'">=</tspan>
      <tspan x="87.525879" y="-0.3125" style="font-size: 9px; font-family: 'Arial'"> </tspan>
      <tspan x="90.026367" y="-0.3125" style="font-size: 9px; font-family: 'Arial'">4</tspan>
      <tspan x="95.031738" y="-0.3125" style="font-size: 9px; font-family: 'Arial'">2</tspan>
      <tspan x="100.037109" y="-0.3125" style="font-size: 9px; font-family: 'Arial'">)</tspan>
      <tspan x="66.528809" y="-0.3125" style="font-size: 9px; font-family: 'DejaVu Sans'">Δ</tspan>
      <tspan x="72.685547" y="-0.3125" style="font-style: oblique; font-size: 9px; font-family: 'DejaVu Sans'">Q</tspan>
     </text>
    </g>
   </g>
   <g id="legend_1">
    <g id="line2d_25">
     <path d="M 193.631901 148.0515 
L 199.631901 148.0515 
L 205.631901 148.0515 
" style="fill: none; stroke: #2b5c8f; stroke-linecap: square"/>
    </g>
    <g id="text_17">
     <!-- $\bar{Q}_{\mathrm{data}}$ -->
     <g transform="translate(210.431901 150.1515)">
      <text>
       <tspan x="4.555664" y="-1.53125" style="font-size: 6px; font-family: 'DejaVu Sans'">̄</tspan>
       <tspan x="0" y="-0.359375" style="font-style: oblique; font-size: 6px; font-family: 'DejaVu Sans'">Q</tspan>
       <tspan x="4.780078" y="0.625" style="font-size: 4.2px; font-family: 'DejaVu Sans'">d</tspan>
       <tspan x="7.446094" y="0.625" style="font-size: 4.2px; font-family: 'DejaVu Sans'">a</tspan>
       <tspan x="10.019824" y="0.625" style="font-size: 4.2px; font-family: 'DejaVu Sans'">t</tspan>
       <tspan x="11.666602" y="0.625" style="font-size: 4.2px; font-family: 'DejaVu Sans'">a</tspan>
      </text>
     </g>
    </g>
    <g id="line2d_26">
     <path d="M 193.631901 157.7715 
L 199.631901 157.7715 
L 205.631901 157.7715 
" style="fill: none; stroke-dasharray: 2.96,1.28; stroke-dashoffset: 0; stroke: #7f7f7f; stroke-width: 0.8"/>
    </g>
    <g id="text_18">
     <!-- $\bar{Q}_{\mathrm{rand}}$ -->
     <g transform="translate(210.431901 159.8715)">
      <text>
       <tspan x="4.555664" y="-1.53125" style="font-size: 6px; font-family: 'DejaVu Sans'">̄</tspan>
       <tspan x="0" y="-0.359375" style="font-style: oblique; font-size: 6px; font-family: 'DejaVu Sans'">Q</tspan>
       <tspan x="4.780078" y="0.625" style="font-size: 4.2px; font-family: 'DejaVu Sans'">r</tspan>
       <tspan x="6.506836" y="0.625" style="font-size: 4.2px; font-family: 'DejaVu Sans'">a</tspan>
       <tspan x="9.080566" y="0.625" style="font-size: 4.2px; font-family: 'DejaVu Sans'">n</tspan>
       <tspan x="11.74248" y="0.625" style="font-size: 4.2px; font-family: 'DejaVu Sans'">d</tspan>
      </text>
     </g>
    </g>
   </g>
  </g>
  <g id="axes_2">
   <g id="patch_7">
    <path d="M 302.388099 166.464 
L 473.76 166.464 
L 473.76 27.36 
L 302.388099 27.36 
z
" style="fill: #ffffff"/>
   </g>
   <g id="matplotlib.axis_3">
    <g id="xtick_7">
     <g id="line2d_27">
      <path d="M 310.177731 166.464 
L 310.177731 27.36 
" clip-path="url(#pbd9854c091)" style="fill: none; stroke: #e8e8e8; stroke-opacity: 0.25; stroke-width: 0.3; stroke-linecap: square"/>
     </g>
     <g id="line2d_28">
      <g>
       <use xlink:href="#mcb52dc796b" x="310.177731" y="166.464" style="stroke: #000000; stroke-width: 0.6"/>
      </g>
     </g>
     <g id="text_19">
      <text style="font-size: 7px; font-family: 'Arial', 'Helvetica', 'DejaVu Sans', sans-serif; text-anchor: middle" x="310.177731" y="177.974469" transform="rotate(-0 310.177731 177.974469)">0</text>
     </g>
    </g>
    <g id="xtick_8">
     <g id="line2d_29">
      <path d="M 341.3987 166.464 
L 341.3987 27.36 
" clip-path="url(#pbd9854c091)" style="fill: none; stroke: #e8e8e8; stroke-opacity: 0.25; stroke-width: 0.3; stroke-linecap: square"/>
     </g>
     <g id="line2d_30">
      <g>
       <use xlink:href="#mcb52dc796b" x="341.3987" y="166.464" style="stroke: #000000; stroke-width: 0.6"/>
      </g>
     </g>
     <g id="text_20">
      <text style="font-size: 7px; font-family: 'Arial', 'Helvetica', 'DejaVu Sans', sans-serif; text-anchor: middle" x="341.3987" y="177.974469" transform="rotate(-0 341.3987 177.974469)">100</text>
     </g>
    </g>
    <g id="xtick_9">
     <g id="line2d_31">
      <path d="M 372.61967 166.464 
L 372.61967 27.36 
" clip-path="url(#pbd9854c091)" style="fill: none; stroke: #e8e8e8; stroke-opacity: 0.25; stroke-width: 0.3; stroke-linecap: square"/>
     </g>
     <g id="line2d_32">
      <g>
       <use xlink:href="#mcb52dc796b" x="372.61967" y="166.464" style="stroke: #000000; stroke-width: 0.6"/>
      </g>
     </g>
     <g id="text_21">
      <text style="font-size: 7px; font-family: 'Arial', 'Helvetica', 'DejaVu Sans', sans-serif; text-anchor: middle" x="372.61967" y="177.974469" transform="rotate(-0 372.61967 177.974469)">200</text>
     </g>
    </g>
    <g id="xtick_10">
     <g id="line2d_33">
      <path d="M 403.840639 166.464 
L 403.840639 27.36 
" clip-path="url(#pbd9854c091)" style="fill: none; stroke: #e8e8e8; stroke-opacity: 0.25; stroke-width: 0.3; stroke-linecap: square"/>
     </g>
     <g id="line2d_34">
      <g>
       <use xlink:href="#mcb52dc796b" x="403.840639" y="166.464" style="stroke: #000000; stroke-width: 0.6"/>
      </g>
     </g>
     <g id="text_22">
      <text style="font-size: 7px; font-family: 'Arial', 'Helvetica', 'DejaVu Sans', sans-serif; text-anchor: middle" x="403.840639" y="177.974469" transform="rotate(-0 403.840639 177.974469)">300</text>
     </g>
    </g>
    <g id="xtick_11">
     <g id="line2d_35">
      <path d="M 435.061608 166.464 
L 435.061608 27.36 
" clip-path="url(#pbd9854c091)" style="fill: none; stroke: #e8e8e8; stroke-opacity: 0.25; stroke-width: 0.3; stroke-linecap: square"/>
     </g>
     <g id="line2d_36">
      <g>
       <use xlink:href="#mcb52dc796b" x="435.061608" y="166.464" style="stroke: #000000; stroke-width: 0.6"/>
      </g>
     </g>
     <g id="text_23">
      <text style="font-size: 7px; font-family: 'Arial', 'Helvetica', 'DejaVu Sans', sans-serif; text-anchor: middle" x="435.061608" y="177.974469" transform="rotate(-0 435.061608 177.974469)">400</text>
     </g>
    </g>
    <g id="xtick_12">
     <g id="line2d_37">
      <path d="M 466.282578 166.464 
L 466.282578 27.36 
" clip-path="url(#pbd9854c091)" style="fill: none; stroke: #e8e8e8; stroke-opacity: 0.25; stroke-width: 0.3; stroke-linecap: square"/>
     </g>
     <g id="line2d_38">
      <g>
       <use xlink:href="#mcb52dc796b" x="466.282578" y="166.464" style="stroke: #000000; stroke-width: 0.6"/>
      </g>
     </g>
     <g id="text_24">
      <text style="font-size: 7px; font-family: 'Arial', 'Helvetica', 'DejaVu Sans', sans-serif; text-anchor: middle" x="466.282578" y="177.974469" transform="rotate(-0 466.282578 177.974469)">500</text>
     </g>
    </g>
    <g id="text_25">
     <text style="font-size: 8px; font-family: 'Arial', 'Helvetica', 'DejaVu Sans', sans-serif; text-anchor: middle" x="388.07405" y="189.091969" transform="rotate(-0 388.07405 189.091969)">Epoch</text>
    </g>
   </g>
   <g id="matplotlib.axis_4">
    <g id="ytick_6">
     <g id="line2d_39">
      <path d="M 302.388099 162.768492 
L 473.76 162.768492 
" clip-path="url(#pbd9854c091)" style="fill: none; stroke: #e8e8e8; stroke-opacity: 0.25; stroke-width: 0.3; stroke-linecap: square"/>
     </g>
     <g id="line2d_40">
      <g>
       <use xlink:href="#m8115bc09c6" x="302.388099" y="162.768492" style="stroke: #000000; stroke-width: 0.6"/>
      </g>
     </g>
     <g id="text_26">
      <text style="font-size: 7px; font-family: 'Arial', 'Helvetica', 'DejaVu Sans', sans-serif; text-anchor: end; fill: #5b8c5a" x="295.888099" y="165.273726" transform="rotate(-0 295.888099 165.273726)">-0.0004</text>
     </g>
    </g>
    <g id="ytick_7">
     <g id="line2d_41">
      <path d="M 302.388099 143.399477 
L 473.76 143.399477 
" clip-path="url(#pbd9854c091)" style="fill: none; stroke: #e8e8e8; stroke-opacity: 0.25; stroke-width: 0.3; stroke-linecap: square"/>
     </g>
     <g id="line2d_42">
      <g>
       <use xlink:href="#m8115bc09c6" x="302.388099" y="143.399477" style="stroke: #000000; stroke-width: 0.6"/>
      </g>
     </g>
     <g id="text_27">
      <text style="font-size: 7px; font-family: 'Arial', 'Helvetica', 'DejaVu Sans', sans-serif; text-anchor: end; fill: #5b8c5a" x="295.888099" y="145.904711" transform="rotate(-0 295.888099 145.904711)">-0.0003</text>
     </g>
    </g>
    <g id="ytick_8">
     <g id="line2d_43">
      <path d="M 302.388099 124.030462 
L 473.76 124.030462 
" clip-path="url(#pbd9854c091)" style="fill: none; stroke: #e8e8e8; stroke-opacity: 0.25; stroke-width: 0.3; stroke-linecap: square"/>
     </g>
     <g id="line2d_44">
      <g>
       <use xlink:href="#m8115bc09c6" x="302.388099" y="124.030462" style="stroke: #000000; stroke-width: 0.6"/>
      </g>
     </g>
     <g id="text_28">
      <text style="font-size: 7px; font-family: 'Arial', 'Helvetica', 'DejaVu Sans', sans-serif; text-anchor: end; fill: #5b8c5a" x="295.888099" y="126.535696" transform="rotate(-0 295.888099 126.535696)">-0.0002</text>
     </g>
    </g>
    <g id="ytick_9">
     <g id="line2d_45">
      <path d="M 302.388099 104.661447 
L 473.76 104.661447 
" clip-path="url(#pbd9854c091)" style="fill: none; stroke: #e8e8e8; stroke-opacity: 0.25; stroke-width: 0.3; stroke-linecap: square"/>
     </g>
     <g id="line2d_46">
      <g>
       <use xlink:href="#m8115bc09c6" x="302.388099" y="104.661447" style="stroke: #000000; stroke-width: 0.6"/>
      </g>
     </g>
     <g id="text_29">
      <text style="font-size: 7px; font-family: 'Arial', 'Helvetica', 'DejaVu Sans', sans-serif; text-anchor: end; fill: #5b8c5a" x="295.888099" y="107.166681" transform="rotate(-0 295.888099 107.166681)">-0.0001</text>
     </g>
    </g>
    <g id="ytick_10">
     <g id="line2d_47">
      <path d="M 302.388099 85.292432 
L 473.76 85.292432 
" clip-path="url(#pbd9854c091)" style="fill: none; stroke: #e8e8e8; stroke-opacity: 0.25; stroke-width: 0.3; stroke-linecap: square"/>
     </g>
     <g id="line2d_48">
      <g>
       <use xlink:href="#m8115bc09c6" x="302.388099" y="85.292432" style="stroke: #000000; stroke-width: 0.6"/>
      </g>
     </g>
     <g id="text_30">
      <text style="font-size: 7px; font-family: 'Arial', 'Helvetica', 'DejaVu Sans', sans-serif; text-anchor: end; fill: #5b8c5a" x="295.888099" y="87.797666" transform="rotate(-0 295.888099 87.797666)">0.0000</text>
     </g>
    </g>
    <g id="ytick_11">
     <g id="line2d_49">
      <path d="M 302.388099 65.923417 
L 473.76 65.923417 
" clip-path="url(#pbd9854c091)" style="fill: none; stroke: #e8e8e8; stroke-opacity: 0.25; stroke-width: 0.3; stroke-linecap: square"/>
     </g>
     <g id="line2d_50">
      <g>
       <use xlink:href="#m8115bc09c6" x="302.388099" y="65.923417" style="stroke: #000000; stroke-width: 0.6"/>
      </g>
     </g>
     <g id="text_31">
      <text style="font-size: 7px; font-family: 'Arial', 'Helvetica', 'DejaVu Sans', sans-serif; text-anchor: end; fill: #5b8c5a" x="295.888099" y="68.428651" transform="rotate(-0 295.888099 68.428651)">0.0001</text>
     </g>
    </g>
    <g id="ytick_12">
     <g id="line2d_51">
      <path d="M 302.388099 46.554402 
L 473.76 46.554402 
" clip-path="url(#pbd9854c091)" style="fill: none; stroke: #e8e8e8; stroke-opacity: 0.25; stroke-width: 0.3; stroke-linecap: square"/>
     </g>
     <g id="line2d_52">
      <g>
       <use xlink:href="#m8115bc09c6" x="302.388099" y="46.554402" style="stroke: #000000; stroke-width: 0.6"/>
      </g>
     </g>
     <g id="text_32">
      <text style="font-size: 7px; font-family: 'Arial', 'Helvetica', 'DejaVu Sans', sans-serif; text-anchor: end; fill: #5b8c5a" x="295.888099" y="49.059636" transform="rotate(-0 295.888099 49.059636)">0.0002</text>
     </g>
    </g>
    <g id="text_33">
     <text style="font-size: 8px; font-family: 'Arial', 'Helvetica', 'DejaVu Sans', sans-serif; text-anchor: middle; fill: #5b8c5a" x="266.465599" y="96.912" transform="rotate(-90 266.465599 96.912)">Avg Return</text>
    </g>
   </g>
   <g id="line2d_53">
    <path d="M 310.177731 143.833871 
L 310.489941 149.213505 
L 310.80215 145.897178 
L 311.42657 130.825466 
L 311.738779 137.525341 
L 312.050989 137.238228 
L 312.363199 142.486299 
L 312.675409 128.224237 
L 312.987618 120.180302 
L 313.299828 123.179139 
L 313.612038 112.764133 
L 313.924247 124.591434 
L 314.236457 128.754768 
L 314.548667 115.786007 
L 314.860876 120.712163 
L 315.173086 117.122575 
L 315.485296 111.358183 
L 315.797506 130.179862 
L 316.109715 130.22311 
L 316.421925 129.569481 
L 316.734135 121.565301 
L 317.046344 125.113661 
L 317.670764 110.216518 
L 317.982973 120.064314 
L 318.607393 130.467569 
L 318.919602 130.631477 
L 319.231812 131.078216 
L 319.544022 136.547294 
L 319.856232 151.029668 
L 320.168441 133.02067 
L 320.480651 130.813185 
L 321.10507 104.163828 
L 321.41728 107.882768 
L 321.72949 84.120306 
L 322.041699 73.71961 
L 322.353909 69.621646 
L 322.666119 71.341679 
L 322.978328 79.701454 
L 323.290538 82.838955 
L 323.602748 77.446997 
L 323.914958 63.995506 
L 324.227167 61.104059 
L 324.539377 69.24171 
L 324.851587 84.48482 
L 325.163796 78.051373 
L 325.476006 74.986536 
L 325.788216 104.165633 
L 326.100425 101.527319 
L 326.724845 117.62517 
L 327.037054 106.166869 
L 327.349264 113.588887 
L 327.661474 113.349961 
L 327.973684 106.196058 
L 328.285893 115.338921 
L 328.598103 111.501476 
L 328.910313 100.330129 
L 329.222522 112.815801 
L 329.534732 108.284875 
L 329.846942 99.576283 
L 330.159151 82.481572 
L 330.471361 110.003655 
L 330.783571 104.935552 
L 331.095781 111.333573 
L 331.40799 89.903301 
L 331.7202 79.397834 
L 332.03241 88.063943 
L 332.344619 116.694124 
L 332.656829 76.87321 
L 332.969039 87.167474 
L 333.281248 82.820723 
L 333.593458 80.28803 
L 333.905668 93.418777 
L 334.217877 87.044173 
L 334.530087 87.027974 
L 334.842297 75.579998 
L 335.154507 73.936778 
L 335.466716 73.697398 
L 335.778926 89.894699 
L 336.091136 88.397555 
L 336.403345 64.927079 
L 336.715555 64.468467 
L 337.027765 74.148281 
L 337.339974 90.296645 
L 337.652184 76.786203 
L 337.964394 74.878494 
L 338.276603 67.365458 
L 338.588813 84.15407 
L 338.901023 83.362371 
L 339.525442 65.87383 
L 339.837652 64.064272 
L 340.149862 68.327278 
L 340.462071 70.768705 
L 340.774281 66.764729 
L 341.086491 64.758532 
L 341.3987 52.271845 
L 341.71091 33.682909 
L 342.02312 53.941984 
L 342.335329 65.450731 
L 342.647539 69.419267 
L 342.959749 89.814678 
L 343.271959 92.87415 
L 343.584168 109.832874 
L 343.896378 93.04789 
L 344.208588 90.518495 
L 344.520797 61.255971 
L 344.833007 44.046784 
L 345.145217 36.199104 
L 345.457426 49.538612 
L 345.769636 50.774938 
L 346.081846 67.675034 
L 346.394055 56.156486 
L 346.706265 87.731189 
L 347.018475 82.377102 
L 347.330685 89.810502 
L 347.955104 71.711965 
L 348.579523 94.014242 
L 348.891733 125.568795 
L 349.203943 125.20603 
L 349.516152 123.279343 
L 349.828362 115.826565 
L 350.140572 112.768797 
L 350.452782 119.438563 
L 350.764991 144.399083 
L 351.389411 107.023906 
L 351.70162 132.96978 
L 352.01383 134.818343 
L 352.32604 135.055331 
L 352.638249 154.33264 
L 352.950459 118.491962 
L 353.262669 131.210503 
L 353.574878 129.631569 
L 353.887088 156.749017 
L 354.199298 140.977078 
L 354.511508 112.687524 
L 354.823717 102.464921 
L 355.135927 100.312568 
L 355.448137 88.175711 
L 355.760346 84.824284 
L 356.072556 98.091747 
L 356.384766 86.246199 
L 356.696975 88.597791 
L 357.009185 87.882398 
L 357.321395 96.059332 
L 357.633604 115.667283 
L 357.945814 114.238479 
L 358.258024 111.982742 
L 358.570234 121.722622 
L 358.882443 123.357452 
L 359.194653 114.932056 
L 359.506863 103.194527 
L 359.819072 133.776998 
L 360.131282 119.128956 
L 360.443492 129.93609 
L 360.755701 124.381764 
L 361.380121 154.496549 
L 361.69233 160.141091 
L 362.00454 134.971866 
L 362.31675 100.14116 
L 362.941169 75.154632 
L 363.253379 72.638615 
L 363.565589 64.444985 
L 363.877798 92.585332 
L 364.190008 72.358493 
L 364.502218 86.289564 
L 364.814427 82.036283 
L 365.126637 86.141097 
L 365.438847 81.772496 
L 365.751056 71.290802 
L 366.063266 97.518724 
L 366.375476 82.277349 
L 366.999895 87.952758 
L 367.312105 137.716462 
L 367.624315 129.936474 
L 367.936524 118.229407 
L 368.560944 106.600262 
L 369.185363 65.332009 
L 369.497573 52.382672 
L 369.809783 45.143752 
L 370.434202 63.958518 
L 370.746412 57.470357 
L 371.370831 68.143067 
L 372.30746 103.835026 
L 372.61967 129.548094 
L 372.931879 123.99429 
L 373.244089 120.697701 
L 373.556299 120.973621 
L 373.868509 143.272968 
L 374.180718 119.570593 
L 374.492928 109.807081 
L 374.805138 104.605754 
L 375.117347 102.203422 
L 375.429557 103.512513 
L 375.741767 111.1739 
L 376.053976 109.507499 
L 376.366186 105.289628 
L 376.678396 71.191098 
L 376.990605 56.603148 
L 377.302815 74.962597 
L 377.615025 65.657354 
L 377.927235 60.649948 
L 378.239444 58.25849 
L 378.551654 77.382868 
L 378.863864 58.390569 
L 379.176073 49.900338 
L 379.488283 51.034457 
L 379.800493 78.344233 
L 380.424912 98.812601 
L 380.737122 105.270978 
L 381.049331 99.2232 
L 381.361541 99.366633 
L 381.673751 88.897366 
L 381.985961 96.140934 
L 382.61038 74.174056 
L 382.92259 86.012051 
L 383.234799 87.242246 
L 383.547009 79.776062 
L 383.859219 85.538143 
L 384.171428 87.023683 
L 384.483638 113.600607 
L 384.795848 105.258149 
L 385.108057 113.99267 
L 385.420267 127.185576 
L 385.732477 122.263117 
L 386.044687 112.526731 
L 386.356896 120.494053 
L 387.293525 76.112078 
L 387.605735 51.995618 
L 388.230154 76.339001 
L 388.542364 101.5562 
L 388.854574 112.829918 
L 389.166784 108.666559 
L 389.478993 94.476524 
L 389.791203 95.603806 
L 390.103413 98.120973 
L 390.415622 112.992664 
L 390.727832 121.645636 
L 391.040042 114.500024 
L 391.352251 129.885496 
L 391.664461 126.08955 
L 391.976671 110.957124 
L 392.28888 111.417612 
L 392.60109 107.681538 
L 392.9133 90.480917 
L 393.22551 101.781934 
L 393.537719 98.839413 
L 393.849929 71.791737 
L 394.162139 78.345812 
L 394.474348 111.903377 
L 394.786558 89.825253 
L 395.098768 85.753434 
L 395.410977 67.550326 
L 395.723187 79.156404 
L 396.035397 75.417866 
L 396.347606 57.920104 
L 396.659816 54.157865 
L 397.284236 66.823337 
L 397.596445 48.30188 
L 397.908655 48.416551 
L 398.533074 89.018071 
L 398.845284 77.309732 
L 399.157494 75.249066 
L 399.469703 108.086619 
L 400.094123 74.932405 
L 400.406332 68.416273 
L 400.718542 52.841143 
L 401.030752 63.733693 
L 401.342962 80.630277 
L 401.655171 88.308614 
L 401.967381 125.455565 
L 402.279591 117.287683 
L 402.5918 92.807031 
L 402.90401 93.026583 
L 403.21622 78.104762 
L 403.528429 93.824412 
L 403.840639 81.87267 
L 404.152849 84.103855 
L 404.465059 74.26225 
L 404.777268 68.256812 
L 405.089478 77.893714 
L 405.401688 76.751562 
L 405.713897 73.933268 
L 406.026107 78.637525 
L 406.338317 89.745669 
L 406.650526 70.385533 
L 406.962736 63.245592 
L 407.587155 68.49828 
L 407.899365 57.337748 
L 408.211575 71.381268 
L 408.523785 71.11015 
L 408.835994 93.562066 
L 409.148204 76.912796 
L 409.460414 71.201075 
L 409.772623 77.426896 
L 410.084833 72.493077 
L 410.397043 92.585199 
L 410.709252 80.38776 
L 411.021462 80.792889 
L 411.333672 80.52905 
L 411.645881 86.409425 
L 411.958091 114.249002 
L 412.270301 111.731452 
L 412.582511 115.550995 
L 412.89472 115.11229 
L 413.20693 112.910158 
L 413.51914 104.394792 
L 413.831349 104.607673 
L 414.143559 97.869891 
L 414.455769 77.823154 
L 414.767978 89.049967 
L 415.080188 93.758496 
L 415.392398 119.837952 
L 415.704607 96.118462 
L 416.329027 73.692027 
L 416.641237 93.177782 
L 416.953446 74.37455 
L 417.265656 91.349342 
L 417.890075 63.391039 
L 418.514495 84.691087 
L 418.826704 94.167116 
L 419.138914 96.305817 
L 419.763333 82.181621 
L 420.075543 98.874625 
L 420.387753 101.249663 
L 420.699963 100.532002 
L 421.012172 91.438185 
L 421.324382 94.814348 
L 421.636592 86.784165 
L 421.948801 84.805366 
L 422.261011 71.58463 
L 422.573221 76.991106 
L 422.88543 77.646334 
L 423.19764 92.073132 
L 423.50985 96.152006 
L 423.82206 74.155711 
L 424.134269 88.07229 
L 424.446479 96.541704 
L 424.758689 99.109636 
L 425.070898 125.435972 
L 425.383108 131.887488 
L 425.695318 127.687959 
L 426.007527 117.480545 
L 426.319737 80.106166 
L 426.631947 102.582064 
L 426.944156 89.257948 
L 427.256366 86.756621 
L 427.568576 97.56209 
L 427.880786 87.864403 
L 428.192995 95.078536 
L 428.505205 107.878205 
L 428.817415 109.126965 
L 429.129624 114.937308 
L 429.441834 98.37838 
L 429.754044 112.880104 
L 430.066253 91.7041 
L 430.378463 97.725717 
L 430.690673 97.737403 
L 431.002882 88.745243 
L 431.315092 117.188381 
L 431.627302 108.358455 
L 431.939512 102.843623 
L 432.251721 105.556693 
L 432.876141 96.318134 
L 433.18835 111.766415 
L 433.50056 80.472828 
L 433.81277 112.574909 
L 434.124979 122.008619 
L 434.437189 111.079384 
L 434.749399 119.525195 
L 435.373818 87.841997 
L 435.686028 104.051222 
L 435.998238 108.657795 
L 436.310447 123.343348 
L 436.622657 128.021133 
L 436.934867 101.706965 
L 437.247076 90.98177 
L 437.871496 60.364981 
L 438.183705 70.245889 
L 438.495915 83.688949 
L 438.808125 80.045399 
L 439.120334 97.0067 
L 439.432544 104.084445 
L 439.744754 113.922268 
L 440.056964 117.894772 
L 440.369173 136.032659 
L 440.681383 136.982831 
L 440.993593 109.639921 
L 441.305802 99.174871 
L 441.618012 80.908213 
L 441.930222 83.840718 
L 442.242431 72.061237 
L 442.554641 99.623521 
L 442.866851 97.713991 
L 443.179061 119.717822 
L 443.49127 98.265221 
L 443.80348 89.924744 
L 444.11569 69.283261 
L 444.427899 71.894655 
L 444.740109 81.134892 
L 445.052319 63.968366 
L 445.364528 64.698854 
L 445.676738 66.452094 
L 446.301157 99.931278 
L 446.613367 94.469481 
L 446.925577 79.033846 
L 447.237787 82.257301 
L 447.549996 81.327757 
L 447.862206 71.550425 
L 448.174416 70.13957 
L 449.111045 88.965656 
L 449.423254 78.481613 
L 449.735464 80.254957 
L 450.359883 100.054728 
L 450.672093 95.137533 
L 450.984303 97.007935 
L 451.296513 87.473163 
L 451.608722 90.389424 
L 451.920932 107.659433 
L 452.545351 86.714788 
L 452.857561 93.763004 
L 453.169771 80.403855 
L 453.48198 84.151196 
L 453.79419 109.039223 
L 454.1064 107.558056 
L 454.418609 84.762849 
L 454.730819 81.107493 
L 455.043029 101.885044 
L 455.355239 108.783413 
L 455.667448 98.781257 
L 455.979658 100.547343 
L 456.291868 104.189771 
L 456.604077 94.272365 
L 456.916287 101.735348 
L 457.228497 95.236945 
L 457.540706 83.756852 
L 457.852916 80.270131 
L 458.165126 92.9489 
L 458.477335 88.916603 
L 458.789545 98.956743 
L 459.101755 98.072011 
L 460.038384 72.763915 
L 460.350594 73.722299 
L 460.662803 83.878858 
L 460.975013 55.083769 
L 461.287223 64.677573 
L 461.599432 60.876927 
L 462.536062 95.942533 
L 462.848271 104.609218 
L 463.160481 99.444478 
L 463.472691 97.087551 
L 463.7849 75.800288 
L 464.09711 69.05194 
L 464.40932 71.992605 
L 464.721529 80.798207 
L 465.033739 82.257721 
L 465.345949 74.364422 
L 465.658158 91.281348 
L 465.970368 71.922541 
L 465.970368 71.922541 
" clip-path="url(#pbd9854c091)" style="fill: none; stroke: #5b8c5a; stroke-linecap: square"/>
   </g>
   <g id="patch_8">
    <path d="M 302.388099 166.464 
L 302.388099 27.36 
" style="fill: none; stroke: #000000; stroke-width: 0.8; stroke-linejoin: miter; stroke-linecap: square"/>
   </g>
   <g id="patch_9">
    <path d="M 302.388099 166.464 
L 473.76 166.464 
" style="fill: none; stroke: #000000; stroke-width: 0.8; stroke-linejoin: miter; stroke-linecap: square"/>
   </g>
   <g id="text_34">
    <text style="font-size: 9px; font-family: 'Arial', 'Helvetica', 'DejaVu Sans', sans-serif; text-anchor: middle" x="388.07405" y="21.36" transform="rotate(-0 388.07405 21.36)">b  Average Return &amp; Lagrange alpha</text>
   </g>
   <g id="legend_2">
    <g id="line2d_54">
     <path d="M 412.554375 35.027812 
L 418.554375 35.027812 
L 424.554375 35.027812 
" style="fill: none; stroke: #5b8c5a; stroke-linecap: square"/>
    </g>
    <g id="text_35">
     <text style="font-size: 6px; font-family: 'Arial', 'Helvetica', 'DejaVu Sans', sans-serif; text-anchor: start" x="429.354375" y="37.127812" transform="rotate(-0 429.354375 37.127812)">Return (norm.)</text>
    </g>
    <g id="line2d_55">
     <path d="M 412.554375 43.585312 
L 418.554375 43.585312 
L 424.554375 43.585312 
" style="fill: none; stroke-dasharray: 0.8,1.32; stroke-dashoffset: 0; stroke: #d4a04a; stroke-width: 0.8"/>
    </g>
    <g id="text_36">
     <text style="font-size: 6px; font-family: 'Arial', 'Helvetica', 'DejaVu Sans', sans-serif; text-anchor: start" x="429.354375" y="45.685312" transform="rotate(-0 429.354375 45.685312)">alpha</text>
    </g>
   </g>
  </g>
  <g id="axes_3">
   <g id="matplotlib.axis_5">
    <g id="ytick_13">
     <g id="line2d_56">
      <defs>
       <path id="m5f1bd8abcd" d="M 0 0 
L 3 0 
" style="stroke: #000000; stroke-width: 0.6"/>
      </defs>
      <g>
       <use xlink:href="#m5f1bd8abcd" x="473.76" y="160.959476" style="stroke: #000000; stroke-width: 0.6"/>
      </g>
     </g>
     <g id="text_37">
      <text style="font-size: 7px; font-family: 'Arial', 'Helvetica', 'DejaVu Sans', sans-serif; text-anchor: start; fill: #d4a04a" x="480.26" y="163.46471" transform="rotate(-0 480.26 163.46471)">0.0</text>
     </g>
    </g>
    <g id="ytick_14">
     <g id="line2d_57">
      <g>
       <use xlink:href="#m5f1bd8abcd" x="473.76" y="139.355035" style="stroke: #000000; stroke-width: 0.6"/>
      </g>
     </g>
     <g id="text_38">
      <text style="font-size: 7px; font-family: 'Arial', 'Helvetica', 'DejaVu Sans', sans-serif; text-anchor: start; fill: #d4a04a" x="480.26" y="141.860269" transform="rotate(-0 480.26 141.860269)">0.2</text>
     </g>
    </g>
    <g id="ytick_15">
     <g id="line2d_58">
      <g>
       <use xlink:href="#m5f1bd8abcd" x="473.76" y="117.750593" style="stroke: #000000; stroke-width: 0.6"/>
      </g>
     </g>
     <g id="text_39">
      <text style="font-size: 7px; font-family: 'Arial', 'Helvetica', 'DejaVu Sans', sans-serif; text-anchor: start; fill: #d4a04a" x="480.26" y="120.255827" transform="rotate(-0 480.26 120.255827)">0.4</text>
     </g>
    </g>
    <g id="ytick_16">
     <g id="line2d_59">
      <g>
       <use xlink:href="#m5f1bd8abcd" x="473.76" y="96.146152" style="stroke: #000000; stroke-width: 0.6"/>
      </g>
     </g>
     <g id="text_40">
      <text style="font-size: 7px; font-family: 'Arial', 'Helvetica', 'DejaVu Sans', sans-serif; text-anchor: start; fill: #d4a04a" x="480.26" y="98.651386" transform="rotate(-0 480.26 98.651386)">0.6</text>
     </g>
    </g>
    <g id="ytick_17">
     <g id="line2d_60">
      <g>
       <use xlink:href="#m5f1bd8abcd" x="473.76" y="74.54171" style="stroke: #000000; stroke-width: 0.6"/>
      </g>
     </g>
     <g id="text_41">
      <text style="font-size: 7px; font-family: 'Arial', 'Helvetica', 'DejaVu Sans', sans-serif; text-anchor: start; fill: #d4a04a" x="480.26" y="77.046944" transform="rotate(-0 480.26 77.046944)">0.8</text>
     </g>
    </g>
    <g id="ytick_18">
     <g id="line2d_61">
      <g>
       <use xlink:href="#m5f1bd8abcd" x="473.76" y="52.937269" style="stroke: #000000; stroke-width: 0.6"/>
      </g>
     </g>
     <g id="text_42">
      <text style="font-size: 7px; font-family: 'Arial', 'Helvetica', 'DejaVu Sans', sans-serif; text-anchor: start; fill: #d4a04a" x="480.26" y="55.442503" transform="rotate(-0 480.26 55.442503)">1.0</text>
     </g>
    </g>
    <g id="ytick_19">
     <g id="line2d_62">
      <g>
       <use xlink:href="#m5f1bd8abcd" x="473.76" y="31.332827" style="stroke: #000000; stroke-width: 0.6"/>
      </g>
     </g>
     <g id="text_43">
      <text style="font-size: 7px; font-family: 'Arial', 'Helvetica', 'DejaVu Sans', sans-serif; text-anchor: start; fill: #d4a04a" x="480.26" y="33.838061" transform="rotate(-0 480.26 33.838061)">1.2</text>
     </g>
    </g>
    <g id="text_44">
     <text style="font-size: 8px; font-family: 'Arial', 'Helvetica', 'DejaVu Sans', sans-serif; text-anchor: middle; fill: #d4a04a" x="499.81875" y="96.912" transform="rotate(-90 499.81875 96.912)">CQL alpha</text>
    </g>
   </g>
   <g id="line2d_63">
    <path d="M 310.177731 38.942842 
L 310.80215 39.341238 
L 311.11436 38.299617 
L 311.738779 34.744907 
L 312.050989 33.682909 
L 312.363199 33.72392 
L 312.675409 35.037007 
L 313.299828 40.592936 
L 314.236457 52.696009 
L 316.421925 82.54195 
L 317.670764 96.293542 
L 318.919602 107.557141 
L 320.168441 116.519978 
L 321.41728 123.581156 
L 322.666119 129.086345 
L 323.914958 133.495547 
L 325.163796 137.053524 
L 326.412635 139.931757 
L 327.661474 142.306565 
L 329.534732 145.345801 
L 331.095781 147.451921 
L 332.656829 149.17071 
L 334.530087 150.916485 
L 336.403345 152.322273 
L 338.588813 153.750603 
L 340.462071 154.696942 
L 343.271959 155.845528 
L 346.706265 156.971889 
L 349.516152 157.697476 
L 353.574878 158.464932 
L 357.945814 159.071128 
L 363.565589 159.615816 
L 369.497573 159.965722 
L 375.117347 160.141091 
L 380.737122 160.026727 
L 384.171428 159.781107 
L 385.732477 159.539209 
L 387.293525 159.020208 
L 388.542364 158.366652 
L 389.791203 157.229076 
L 391.040042 155.874813 
L 393.849929 151.987418 
L 395.098768 148.839566 
L 395.723187 147.922079 
L 396.347606 147.546591 
L 396.972026 147.541428 
L 398.220865 148.104592 
L 400.718542 149.849764 
L 402.5918 151.527414 
L 404.465059 152.842014 
L 406.026107 153.518802 
L 410.397043 154.656761 
L 411.958091 154.648256 
L 413.831349 154.368456 
L 418.202285 152.129174 
L 420.387753 150.792822 
L 421.948801 150.158174 
L 424.134269 149.37636 
L 425.383108 149.208602 
L 426.319737 149.388449 
L 427.256366 149.694961 
L 430.690673 151.454665 
L 432.563931 152.470169 
L 434.124979 152.997789 
L 436.622657 153.623078 
L 441.305802 154.057788 
L 442.242431 153.903887 
L 443.80348 153.428245 
L 445.364528 152.553253 
L 446.613367 151.609617 
L 447.862206 150.472966 
L 448.798835 149.48846 
L 449.423254 149.020471 
L 450.047674 148.78777 
L 452.545351 148.527445 
L 455.355239 149.14125 
L 458.165126 150.266575 
L 458.789545 150.369765 
L 461.599432 150.380334 
L 463.160481 150.589474 
L 465.970368 151.199515 
L 465.970368 151.199515 
" clip-path="url(#pbd9854c091)" style="fill: none; stroke-dasharray: 0.8,1.32; stroke-dashoffset: 0; stroke: #d4a04a; stroke-width: 0.8"/>
   </g>
   <g id="patch_10">
    <path d="M 302.388099 166.464 
L 302.388099 27.36 
" style="fill: none; stroke: #000000; stroke-width: 0.8; stroke-linejoin: miter; stroke-linecap: square"/>
   </g>
   <g id="patch_11">
    <path d="M 473.76 166.464 
L 473.76 27.36 
" style="fill: none; stroke: #d4a04a; stroke-width: 0.6; stroke-linejoin: miter; stroke-linecap: square"/>
   </g>
   <g id="patch_12">
    <path d="M 302.388099 166.464 
L 473.76 166.464 
" style="fill: none; stroke: #000000; stroke-width: 0.8; stroke-linejoin: miter; stroke-linecap: square"/>
   </g>
  </g>
  <g id="text_45">
   <text style="font-weight: 700; font-size: 10px; font-family: 'Arial', 'Helvetica', 'DejaVu Sans', sans-serif; text-anchor: start" x="7.2" y="14.479687" transform="rotate(-0 7.2 14.479687)">Q-Value Separation &amp; Return</text>
  </g>
 </g>
 <defs>
  <clipPath id="p06930cc0d8">
   <rect x="59.04" y="27.36" width="171.371901" height="139.104"/>
  </clipPath>
  <clipPath id="pbd9854c091">
   <rect x="302.388099" y="27.36" width="171.371901" height="139.104"/>
  </clipPath>
 </defs>
</svg>
